<svg width="534" height="587" viewBox="0 0 534 587" fill="none" xmlns="http://www.w3.org/2000/svg">
<g filter="url(#filter0_ddd)">
<path d="M3 6.00001C3 3.79087 4.79086 2 7 2H527C529.209 2 531 3.79086 531 6V579C531 581.209 529.209 583 527 583H7C4.79086 583 3 581.209 3 579V6.00001Z" fill="white"/>
</g>
<path d="M59.5453 53.2129C59.5453 54.6126 59.2979 55.8398 58.8031 56.8945C58.3083 57.9492 57.5987 58.763 56.6742 59.3359C55.7563 59.9089 54.7016 60.1953 53.5102 60.1953C52.3318 60.1953 51.2803 59.9121 50.3559 59.3457C49.4314 58.7793 48.7152 57.972 48.2074 56.9238C47.6996 55.8691 47.4425 54.6582 47.4359 53.291V52.5879C47.4359 51.1882 47.6866 49.9577 48.1879 48.8965C48.6957 47.8288 49.4086 47.0117 50.3266 46.4453C51.251 45.8724 52.3057 45.5859 53.4906 45.5859C54.6755 45.5859 55.727 45.8724 56.6449 46.4453C57.5694 47.0117 58.2823 47.8288 58.7836 48.8965C59.2914 49.9577 59.5453 51.1849 59.5453 52.5781V53.2129ZM56.5766 52.5684C56.5766 51.0775 56.3096 49.9447 55.7758 49.1699C55.2419 48.3952 54.4802 48.0078 53.4906 48.0078C52.5076 48.0078 51.7491 48.3919 51.2152 49.1602C50.6814 49.9219 50.4112 51.0417 50.4047 52.5195V53.2129C50.4047 54.6647 50.6716 55.791 51.2055 56.5918C51.7393 57.3926 52.5076 57.793 53.5102 57.793C54.4932 57.793 55.2484 57.4089 55.7758 56.6406C56.3031 55.8659 56.5701 54.7396 56.5766 53.2617V52.5684ZM66.4832 57.9199C67.004 57.9199 67.4272 57.7767 67.7527 57.4902C68.0783 57.2038 68.2475 56.8229 68.2606 56.3477H70.907C70.9005 57.0638 70.7052 57.7214 70.3211 58.3203C69.937 58.9128 69.4096 59.375 68.7391 59.707C68.075 60.0326 67.3393 60.1953 66.532 60.1953C65.0216 60.1953 63.8302 59.7168 62.9578 58.7598C62.0854 57.7962 61.6492 56.4681 61.6492 54.7754V54.5898C61.6492 52.9622 62.0822 51.6634 62.9481 50.6934C63.8139 49.7233 65.0021 49.2383 66.5125 49.2383C67.8341 49.2383 68.8921 49.6159 69.6863 50.3711C70.4871 51.1198 70.894 52.1191 70.907 53.3691H68.2606C68.2475 52.8223 68.0783 52.3796 67.7527 52.041C67.4272 51.696 66.9975 51.5234 66.4637 51.5234C65.8061 51.5234 65.3081 51.7643 64.9695 52.2461C64.6375 52.7214 64.4715 53.4961 64.4715 54.5703V54.8633C64.4715 55.9505 64.6375 56.7318 64.9695 57.207C65.3016 57.6823 65.8061 57.9199 66.4832 57.9199ZM81.8879 51.6992H78.4992V60H75.6672V51.6992H72.3371V49.4336H81.8879V51.6992ZM89.8805 60C89.7503 59.7461 89.6559 59.4303 89.5973 59.0527C88.9137 59.8145 88.025 60.1953 86.9313 60.1953C85.8961 60.1953 85.0367 59.8958 84.3531 59.2969C83.676 58.6979 83.3375 57.9427 83.3375 57.0312C83.3375 55.9115 83.7509 55.0521 84.5777 54.4531C85.4111 53.8542 86.6122 53.5514 88.1813 53.5449H89.4801V52.9395C89.4801 52.4512 89.3531 52.0605 89.0992 51.7676C88.8518 51.4746 88.4579 51.3281 87.9176 51.3281C87.4423 51.3281 87.068 51.4421 86.7945 51.6699C86.5276 51.8978 86.3941 52.2103 86.3941 52.6074H83.5719C83.5719 51.9954 83.7607 51.429 84.1383 50.9082C84.5159 50.3874 85.0497 49.9805 85.7398 49.6875C86.43 49.388 87.2047 49.2383 88.0641 49.2383C89.3662 49.2383 90.3981 49.5671 91.1598 50.2246C91.928 50.8757 92.3121 51.7936 92.3121 52.9785V57.5586C92.3186 58.5612 92.4586 59.3197 92.732 59.834V60H89.8805ZM87.5465 58.0371C87.9632 58.0371 88.3473 57.946 88.6988 57.7637C89.0504 57.5749 89.3108 57.3242 89.4801 57.0117V55.1953H88.4254C87.0126 55.1953 86.2607 55.6836 86.1695 56.6602L86.1598 56.8262C86.1598 57.1777 86.2835 57.4674 86.5309 57.6953C86.7783 57.9232 87.1168 58.0371 87.5465 58.0371ZM95.2656 60V49.4336H99.6797C101.118 49.4336 102.222 49.6875 102.99 50.1953C103.758 50.7031 104.143 51.4323 104.143 52.3828C104.143 52.8711 103.98 53.3105 103.654 53.7012C103.335 54.0853 102.867 54.3815 102.248 54.5898C103.003 54.7331 103.596 55.0163 104.025 55.4395C104.462 55.8561 104.68 56.3704 104.68 56.9824C104.68 57.9655 104.309 58.7142 103.566 59.2285C102.831 59.7428 101.76 60 100.354 60H95.2656ZM98.0879 55.6152V57.7441H100.363C101.359 57.7441 101.857 57.3958 101.857 56.6992C101.857 55.9896 101.382 55.6283 100.432 55.6152H98.0879ZM98.0879 53.7207H99.8359C100.826 53.7077 101.32 53.3887 101.32 52.7637C101.32 52.3796 101.184 52.1061 100.91 51.9434C100.643 51.7806 100.233 51.6992 99.6797 51.6992H98.0879V53.7207ZM109.909 52.5293H111.93C112.842 52.5293 113.642 52.6823 114.332 52.9883C115.023 53.2943 115.55 53.7337 115.914 54.3066C116.286 54.873 116.471 55.5339 116.471 56.2891C116.471 57.4023 116.058 58.3008 115.231 58.9844C114.411 59.6615 113.291 60 111.871 60H107.077V49.4336H109.909V52.5293ZM109.909 54.7949V57.7441H111.911C112.47 57.7441 112.9 57.6139 113.2 57.3535C113.499 57.0931 113.649 56.7383 113.649 56.2891C113.649 55.8333 113.502 55.472 113.209 55.2051C112.916 54.9316 112.483 54.7949 111.911 54.7949H109.909ZM125.968 51.6992H122.579V60H119.747V51.6992H116.417V49.4336H125.968V51.6992ZM132.232 60.1953C130.682 60.1953 129.419 59.7201 128.443 58.7695C127.473 57.819 126.988 56.5527 126.988 54.9707V54.6973C126.988 53.6361 127.193 52.6888 127.603 51.8555C128.013 51.0156 128.592 50.3711 129.341 49.9219C130.096 49.4661 130.956 49.2383 131.919 49.2383C133.364 49.2383 134.501 49.694 135.327 50.6055C136.161 51.5169 136.577 52.8092 136.577 54.4824V55.6348H129.849C129.94 56.3249 130.213 56.8783 130.669 57.2949C131.131 57.7116 131.714 57.9199 132.417 57.9199C133.504 57.9199 134.354 57.526 134.966 56.7383L136.353 58.291C135.93 58.89 135.357 59.3587 134.634 59.6973C133.911 60.0293 133.111 60.1953 132.232 60.1953ZM131.909 51.5234C131.349 51.5234 130.894 51.7122 130.542 52.0898C130.197 52.4674 129.976 53.0078 129.878 53.7109H133.804V53.4863C133.791 52.8613 133.622 52.3796 133.296 52.041C132.971 51.696 132.508 51.5234 131.909 51.5234ZM148.764 57.9199C149.285 57.9199 149.708 57.7767 150.033 57.4902C150.359 57.2038 150.528 56.8229 150.541 56.3477H153.188C153.181 57.0638 152.986 57.7214 152.602 58.3203C152.217 58.9128 151.69 59.375 151.02 59.707C150.355 60.0326 149.62 60.1953 148.813 60.1953C147.302 60.1953 146.111 59.7168 145.238 58.7598C144.366 57.7962 143.93 56.4681 143.93 54.7754V54.5898C143.93 52.9622 144.363 51.6634 145.229 50.6934C146.094 49.7233 147.283 49.2383 148.793 49.2383C150.115 49.2383 151.173 49.6159 151.967 50.3711C152.768 51.1198 153.174 52.1191 153.188 53.3691H150.541C150.528 52.8223 150.359 52.3796 150.033 52.041C149.708 51.696 149.278 51.5234 148.744 51.5234C148.087 51.5234 147.589 51.7643 147.25 52.2461C146.918 52.7214 146.752 53.4961 146.752 54.5703V54.8633C146.752 55.9505 146.918 56.7318 147.25 57.207C147.582 57.6823 148.087 57.9199 148.764 57.9199ZM155.584 60V49.4336H159.998C161.437 49.4336 162.541 49.6875 163.309 50.1953C164.077 50.7031 164.461 51.4323 164.461 52.3828C164.461 52.8711 164.299 53.3105 163.973 53.7012C163.654 54.0853 163.185 54.3815 162.567 54.5898C163.322 54.7331 163.914 55.0163 164.344 55.4395C164.78 55.8561 164.998 56.3704 164.998 56.9824C164.998 57.9655 164.627 58.7142 163.885 59.2285C163.149 59.7428 162.079 60 160.672 60H155.584ZM158.407 55.6152V57.7441H160.682C161.678 57.7441 162.176 57.3958 162.176 56.6992C162.176 55.9896 161.701 55.6283 160.75 55.6152H158.407ZM158.407 53.7207H160.155C161.144 53.7077 161.639 53.3887 161.639 52.7637C161.639 52.3796 161.502 52.1061 161.229 51.9434C160.962 51.7806 160.552 51.6992 159.998 51.6992H158.407V53.7207ZM166.888 54.6191C166.888 53.571 167.089 52.6367 167.493 51.8164C167.897 50.9961 168.476 50.3613 169.231 49.9121C169.993 49.4629 170.875 49.2383 171.878 49.2383C173.304 49.2383 174.466 49.6745 175.364 50.5469C176.269 51.4193 176.774 52.6042 176.878 54.1016L176.897 54.8242C176.897 56.4453 176.445 57.7474 175.54 58.7305C174.635 59.707 173.421 60.1953 171.897 60.1953C170.374 60.1953 169.156 59.707 168.245 58.7305C167.34 57.7539 166.888 56.4258 166.888 54.7461V54.6191ZM169.71 54.8242C169.71 55.8268 169.899 56.5951 170.276 57.1289C170.654 57.6562 171.194 57.9199 171.897 57.9199C172.581 57.9199 173.115 57.6595 173.499 57.1387C173.883 56.6113 174.075 55.7715 174.075 54.6191C174.075 53.6361 173.883 52.8743 173.499 52.334C173.115 51.7936 172.574 51.5234 171.878 51.5234C171.188 51.5234 170.654 51.7936 170.276 52.334C169.899 52.8678 169.71 53.6979 169.71 54.8242ZM185.603 49.4336H188.425V60H185.603V53.4766L182.068 60H179.236V49.4336H182.068V55.9473L185.603 49.4336ZM196.91 57.7246C197.548 57.0475 197.981 56.377 198.209 55.7129C198.437 55.0488 198.564 54.1081 198.59 52.8906L198.668 49.4336H206.441V57.7246H207.965V63.1738H205.143V60H198.883V63.1738H196.002V57.7246H196.91ZM200.24 57.7246H203.629V51.7676H201.432L201.412 53.0371C201.354 54.9772 200.963 56.5397 200.24 57.7246ZM216.123 60C215.993 59.7461 215.899 59.4303 215.84 59.0527C215.157 59.8145 214.268 60.1953 213.174 60.1953C212.139 60.1953 211.28 59.8958 210.596 59.2969C209.919 58.6979 209.58 57.9427 209.58 57.0312C209.58 55.9115 209.994 55.0521 210.821 54.4531C211.654 53.8542 212.855 53.5514 214.424 53.5449H215.723V52.9395C215.723 52.4512 215.596 52.0605 215.342 51.7676C215.095 51.4746 214.701 51.3281 214.161 51.3281C213.685 51.3281 213.311 51.4421 213.038 51.6699C212.771 51.8978 212.637 52.2103 212.637 52.6074H209.815C209.815 51.9954 210.004 51.429 210.381 50.9082C210.759 50.3874 211.293 49.9805 211.983 49.6875C212.673 49.388 213.448 49.2383 214.307 49.2383C215.609 49.2383 216.641 49.5671 217.403 50.2246C218.171 50.8757 218.555 51.7936 218.555 52.9785V57.5586C218.562 58.5612 218.702 59.3197 218.975 59.834V60H216.123ZM213.789 58.0371C214.206 58.0371 214.59 57.946 214.942 57.7637C215.293 57.5749 215.554 57.3242 215.723 57.0117V55.1953H214.668C213.256 55.1953 212.504 55.6836 212.413 56.6602L212.403 56.8262C212.403 57.1777 212.526 57.4674 212.774 57.6953C213.021 57.9232 213.36 58.0371 213.789 58.0371ZM230.483 60H227.651V55.9375H224.145V60H221.323V49.4336H224.145V53.6719H227.651V49.4336H230.483V60ZM242.431 60H239.599V55.9375H236.093V60H233.271V49.4336H236.093V53.6719H239.599V49.4336H242.431V60ZM248.236 52.5293H250.257C251.169 52.5293 251.97 52.6823 252.66 52.9883C253.35 53.2943 253.877 53.7337 254.242 54.3066C254.613 54.873 254.798 55.5339 254.798 56.2891C254.798 57.4023 254.385 58.3008 253.558 58.9844C252.738 59.6615 251.618 60 250.199 60H245.404V49.4336H248.236V52.5293ZM259.291 60H256.468V49.4336H259.291V60ZM248.236 54.7949V57.7441H250.238C250.798 57.7441 251.227 57.6139 251.527 57.3535C251.826 57.0931 251.976 56.7383 251.976 56.2891C251.976 55.8333 251.83 55.472 251.537 55.2051C251.244 54.9316 250.811 54.7949 250.238 54.7949H248.236ZM267.244 60.1953C265.695 60.1953 264.432 59.7201 263.455 58.7695C262.485 57.819 262 56.5527 262 54.9707V54.6973C262 53.6361 262.205 52.6888 262.615 51.8555C263.025 51.0156 263.605 50.3711 264.354 49.9219C265.109 49.4661 265.968 49.2383 266.932 49.2383C268.377 49.2383 269.513 49.694 270.34 50.6055C271.173 51.5169 271.59 52.8092 271.59 54.4824V55.6348H264.861C264.952 56.3249 265.226 56.8783 265.682 57.2949C266.144 57.7116 266.727 57.9199 267.43 57.9199C268.517 57.9199 269.367 57.526 269.979 56.7383L271.365 58.291C270.942 58.89 270.369 59.3587 269.646 59.6973C268.924 60.0293 268.123 60.1953 267.244 60.1953ZM266.922 51.5234C266.362 51.5234 265.906 51.7122 265.555 52.0898C265.21 52.4674 264.988 53.0078 264.891 53.7109H268.816V53.4863C268.803 52.8613 268.634 52.3796 268.309 52.041C267.983 51.696 267.521 51.5234 266.922 51.5234ZM274.534 63.5645L273.059 62.793L273.411 62.1582C273.847 61.3639 274.071 60.5729 274.084 59.7852V57.5977H276.467L276.457 59.5508C276.451 60.2734 276.269 61.0026 275.911 61.7383C275.552 62.474 275.093 63.0827 274.534 63.5645ZM291.3 56.6699L294.064 49.4336H297.599V60H294.777V53.5156L292.247 60H290.353L287.872 53.623V60H285.05V49.4336H288.556L291.3 56.6699ZM303.677 52.5293H305.699C306.61 52.5293 307.411 52.6823 308.101 52.9883C308.791 53.2943 309.319 53.7337 309.683 54.3066C310.054 54.873 310.24 55.5339 310.24 56.2891C310.24 57.4023 309.826 58.3008 309 58.9844C308.179 59.6615 307.06 60 305.64 60H300.845V49.4336H303.677V52.5293ZM314.732 60H311.91V49.4336H314.732V60ZM303.677 54.7949V57.7441H305.679C306.239 57.7441 306.669 57.6139 306.968 57.3535C307.268 57.0931 307.418 56.7383 307.418 56.2891C307.418 55.8333 307.271 55.472 306.978 55.2051C306.685 54.9316 306.252 54.7949 305.679 54.7949H303.677ZM323.588 60V49.4336H328.002C329.441 49.4336 330.545 49.6875 331.313 50.1953C332.081 50.7031 332.465 51.4323 332.465 52.3828C332.465 52.8711 332.302 53.3105 331.977 53.7012C331.658 54.0853 331.189 54.3815 330.571 54.5898C331.326 54.7331 331.918 55.0163 332.348 55.4395C332.784 55.8561 333.002 56.3704 333.002 56.9824C333.002 57.9655 332.631 58.7142 331.889 59.2285C331.153 59.7428 330.082 60 328.676 60H323.588ZM326.411 55.6152V57.7441H328.686C329.682 57.7441 330.18 57.3958 330.18 56.6992C330.18 55.9896 329.705 55.6283 328.754 55.6152H326.411ZM326.411 53.7207H328.159C329.148 53.7077 329.643 53.3887 329.643 52.7637C329.643 52.3796 329.506 52.1061 329.233 51.9434C328.966 51.7806 328.556 51.6992 328.002 51.6992H326.411V53.7207ZM341.454 60C341.324 59.7461 341.229 59.4303 341.171 59.0527C340.487 59.8145 339.598 60.1953 338.505 60.1953C337.47 60.1953 336.61 59.8958 335.927 59.2969C335.249 58.6979 334.911 57.9427 334.911 57.0312C334.911 55.9115 335.324 55.0521 336.151 54.4531C336.985 53.8542 338.186 53.5514 339.755 53.5449H341.054V52.9395C341.054 52.4512 340.927 52.0605 340.673 51.7676C340.425 51.4746 340.031 51.3281 339.491 51.3281C339.016 51.3281 338.641 51.4421 338.368 51.6699C338.101 51.8978 337.968 52.2103 337.968 52.6074H335.145C335.145 51.9954 335.334 51.429 335.712 50.9082C336.089 50.3874 336.623 49.9805 337.313 49.6875C338.003 49.388 338.778 49.2383 339.638 49.2383C340.94 49.2383 341.971 49.5671 342.733 50.2246C343.501 50.8757 343.886 51.7936 343.886 52.9785V57.5586C343.892 58.5612 344.032 59.3197 344.305 59.834V60H341.454ZM339.12 58.0371C339.537 58.0371 339.921 57.946 340.272 57.7637C340.624 57.5749 340.884 57.3242 341.054 57.0117V55.1953H339.999C338.586 55.1953 337.834 55.6836 337.743 56.6602L337.733 56.8262C337.733 57.1777 337.857 57.4674 338.104 57.6953C338.352 57.9232 338.69 58.0371 339.12 58.0371ZM353.089 56.6699L355.853 49.4336H359.388V60H356.566V53.5156L354.036 60H352.142L349.661 53.623V60H346.839V49.4336H350.345L353.089 56.6699ZM377.219 60H374.387V51.7188H370.852V60H368.029V49.4336H377.219V60ZM384.84 60.1953C383.291 60.1953 382.028 59.7201 381.051 58.7695C380.081 57.819 379.596 56.5527 379.596 54.9707V54.6973C379.596 53.6361 379.801 52.6888 380.211 51.8555C380.621 51.0156 381.201 50.3711 381.95 49.9219C382.705 49.4661 383.564 49.2383 384.528 49.2383C385.973 49.2383 387.109 49.694 387.936 50.6055C388.769 51.5169 389.186 52.8092 389.186 54.4824V55.6348H382.457C382.549 56.3249 382.822 56.8783 383.278 57.2949C383.74 57.7116 384.323 57.9199 385.026 57.9199C386.113 57.9199 386.963 57.526 387.575 56.7383L388.961 58.291C388.538 58.89 387.965 59.3587 387.243 59.6973C386.52 60.0293 385.719 60.1953 384.84 60.1953ZM384.518 51.5234C383.958 51.5234 383.502 51.7122 383.151 52.0898C382.806 52.4674 382.584 53.0078 382.487 53.7109H386.413V53.4863C386.399 52.8613 386.23 52.3796 385.905 52.041C385.579 51.696 385.117 51.5234 384.518 51.5234ZM400.909 54.8145C400.909 56.4421 400.538 57.7474 399.796 58.7305C399.06 59.707 398.064 60.1953 396.807 60.1953C395.74 60.1953 394.877 59.8242 394.22 59.082V64.0625H391.397V49.4336H394.014L394.112 50.4688C394.796 49.6484 395.688 49.2383 396.788 49.2383C398.09 49.2383 399.102 49.7201 399.825 50.6836C400.548 51.6471 400.909 52.9753 400.909 54.668V54.8145ZM398.087 54.6094C398.087 53.6263 397.911 52.8678 397.559 52.334C397.214 51.8001 396.71 51.5332 396.046 51.5332C395.16 51.5332 394.552 51.8717 394.22 52.5488V56.875C394.565 57.5716 395.18 57.9199 396.065 57.9199C397.413 57.9199 398.087 56.8164 398.087 54.6094ZM408.13 60.1953C406.581 60.1953 405.318 59.7201 404.341 58.7695C403.371 57.819 402.886 56.5527 402.886 54.9707V54.6973C402.886 53.6361 403.091 52.6888 403.501 51.8555C403.911 51.0156 404.491 50.3711 405.239 49.9219C405.995 49.4661 406.854 49.2383 407.818 49.2383C409.263 49.2383 410.399 49.694 411.226 50.6055C412.059 51.5169 412.476 52.8092 412.476 54.4824V55.6348H405.747C405.838 56.3249 406.112 56.8783 406.568 57.2949C407.03 57.7116 407.613 57.9199 408.316 57.9199C409.403 57.9199 410.252 57.526 410.864 56.7383L412.251 58.291C411.828 58.89 411.255 59.3587 410.532 59.6973C409.81 60.0293 409.009 60.1953 408.13 60.1953ZM407.808 51.5234C407.248 51.5234 406.792 51.7122 406.441 52.0898C406.096 52.4674 405.874 53.0078 405.777 53.7109H409.702V53.4863C409.689 52.8613 409.52 52.3796 409.195 52.041C408.869 51.696 408.407 51.5234 407.808 51.5234ZM420.234 52.5488C420.234 52.1777 420.11 51.8913 419.863 51.6895C419.622 51.4811 419.277 51.377 418.828 51.377C418.365 51.377 417.988 51.4746 417.695 51.6699C417.408 51.8587 417.265 52.1289 417.265 52.4805H414.443C414.443 51.5234 414.84 50.7454 415.634 50.1465C416.429 49.5475 417.444 49.248 418.681 49.248C420.042 49.248 421.11 49.515 421.884 50.0488C422.666 50.5827 423.056 51.3411 423.056 52.3242C423.056 52.793 422.913 53.2259 422.627 53.623C422.347 54.0137 421.949 54.3262 421.435 54.5605C422.64 54.9837 423.242 55.8008 423.242 57.0117C423.242 57.9818 422.825 58.7565 421.992 59.3359C421.165 59.9089 420.061 60.1953 418.681 60.1953C417.399 60.1953 416.344 59.8958 415.517 59.2969C414.69 58.6979 414.277 57.8906 414.277 56.875H417.099C417.099 57.2331 417.259 57.5228 417.578 57.7441C417.897 57.9655 418.313 58.0762 418.828 58.0762C419.329 58.0762 419.72 57.959 420 57.7246C420.28 57.4902 420.42 57.1842 420.42 56.8066C420.42 56.3444 420.286 56.0156 420.019 55.8203C419.752 55.6185 419.352 55.5176 418.818 55.5176H417.285V53.6816H418.916C419.795 53.6556 420.234 53.278 420.234 52.5488ZM425.746 60V49.4336H430.16C431.599 49.4336 432.702 49.6875 433.471 50.1953C434.239 50.7031 434.623 51.4323 434.623 52.3828C434.623 52.8711 434.46 53.3105 434.135 53.7012C433.816 54.0853 433.347 54.3815 432.729 54.5898C433.484 54.7331 434.076 55.0163 434.506 55.4395C434.942 55.8561 435.16 56.3704 435.16 56.9824C435.16 57.9655 434.789 58.7142 434.047 59.2285C433.311 59.7428 432.24 60 430.834 60H425.746ZM428.568 55.6152V57.7441H430.844C431.84 57.7441 432.338 57.3958 432.338 56.6992C432.338 55.9896 431.863 55.6283 430.912 55.6152H428.568ZM428.568 53.7207H430.316C431.306 53.7077 431.801 53.3887 431.801 52.7637C431.801 52.3796 431.664 52.1061 431.391 51.9434C431.124 51.7806 430.714 51.6992 430.16 51.6992H428.568V53.7207ZM437.049 54.6191C437.049 53.571 437.251 52.6367 437.655 51.8164C438.058 50.9961 438.638 50.3613 439.393 49.9121C440.155 49.4629 441.037 49.2383 442.039 49.2383C443.465 49.2383 444.627 49.6745 445.526 50.5469C446.431 51.4193 446.935 52.6042 447.039 54.1016L447.059 54.8242C447.059 56.4453 446.607 57.7474 445.702 58.7305C444.797 59.707 443.582 60.1953 442.059 60.1953C440.536 60.1953 439.318 59.707 438.407 58.7305C437.502 57.7539 437.049 56.4258 437.049 54.7461V54.6191ZM439.871 54.8242C439.871 55.8268 440.06 56.5951 440.438 57.1289C440.816 57.6562 441.356 57.9199 442.059 57.9199C442.743 57.9199 443.276 57.6595 443.661 57.1387C444.045 56.6113 444.237 55.7715 444.237 54.6191C444.237 53.6361 444.045 52.8743 443.661 52.334C443.276 51.7936 442.736 51.5234 442.039 51.5234C441.349 51.5234 440.816 51.7936 440.438 52.334C440.06 52.8678 439.871 53.6979 439.871 54.8242ZM458.557 60H455.725V55.9375H452.22V60H449.397V49.4336H452.22V53.6719H455.725V49.4336H458.557V60ZM467.712 49.4336H470.534V60H467.712V53.4766L464.177 60H461.345V49.4336H464.177V55.9473L467.712 49.4336ZM479.728 56.6699L482.492 49.4336H486.027V60H483.205V53.5156L480.675 60H478.781L476.3 53.623V60H473.478V49.4336H476.984L479.728 56.6699Z" fill="#212121"/>
<g filter="url(#filter1_d)">
<rect x="43.5" y="95.5" width="447" height="39" rx="3.5" stroke="#212121" stroke-opacity="0.2"/>
<path d="M49.3691 79.4688H50.4941V88H49.3691V81.4258L45.168 88H44.0371V79.4688H45.168V86.043L49.3691 79.4688ZM56.1454 86.5645L58.3016 81.6602H59.6552V88H58.5712V83.3887L56.5204 88H55.7704L53.6786 83.2891V88H52.5946V81.6602H54.0009L56.1454 86.5645ZM66.367 81.6602V88H65.2771V85.5332H63.6423L62.1482 88H60.9763L62.5701 85.3691C62.1638 85.2207 61.8513 84.9922 61.6326 84.6836C61.4177 84.3711 61.3103 84.0078 61.3103 83.5938C61.3103 83.0156 61.5271 82.5508 61.9607 82.1992C62.3943 81.8438 62.9744 81.6641 63.7009 81.6602H66.367ZM62.4002 83.6055C62.4002 83.9141 62.5056 84.1641 62.7166 84.3555C62.9275 84.543 63.2068 84.6387 63.5545 84.6426H65.2771V82.5391H63.7185C63.3162 82.5391 62.9959 82.6387 62.7576 82.8379C62.5193 83.0332 62.4002 83.2891 62.4002 83.6055Z" fill="#757575"/>
<path d="M64 115C65.6575 115 67 113.658 67 112C67 110.342 65.6575 109 64 109C62.3425 109 61 110.342 61 112C61 113.658 62.3425 115 64 115ZM64 116.5C61.9975 116.5 58 117.505 58 119.5V120.25C58 120.663 58.3375 121 58.75 121H69.25C69.6625 121 70 120.663 70 120.25V119.5C70 117.505 66.0025 116.5 64 116.5Z" fill="#212121"/>
<rect x="43.5" y="163.5" width="447" height="39" rx="3.5" stroke="#212121" stroke-opacity="0.2"/>
<path d="M49.8848 148.395H47.1426V156H46.0234V148.395H43.2871V147.469H49.8848V148.395ZM53.1454 156.117C52.286 156.117 51.5868 155.836 51.0477 155.273C50.5087 154.707 50.2391 153.951 50.2391 153.006V152.807C50.2391 152.178 50.3583 151.617 50.5966 151.125C50.8387 150.629 51.1747 150.242 51.6044 149.965C52.038 149.684 52.5067 149.543 53.0106 149.543C53.8348 149.543 54.4755 149.814 54.9325 150.357C55.3895 150.9 55.618 151.678 55.618 152.689V153.141H51.3231C51.3387 153.766 51.5204 154.271 51.868 154.658C52.2196 155.041 52.6649 155.232 53.204 155.232C53.5868 155.232 53.911 155.154 54.1766 154.998C54.4423 154.842 54.6747 154.635 54.8739 154.377L55.536 154.893C55.0048 155.709 54.2079 156.117 53.1454 156.117ZM53.0106 150.434C52.5731 150.434 52.2059 150.594 51.9091 150.914C51.6122 151.23 51.4286 151.676 51.3583 152.25H54.5341V152.168C54.5028 151.617 54.3544 151.191 54.0887 150.891C53.8231 150.586 53.4637 150.434 53.0106 150.434ZM62.1951 149.66V156H61.1052V150.557H58.949L58.8201 152.93C58.7498 154.02 58.5662 154.799 58.2693 155.268C57.9763 155.736 57.5095 155.98 56.8689 156H56.4353V155.045L56.7459 155.021C57.0974 154.982 57.3494 154.779 57.5017 154.412C57.6541 154.045 57.7517 153.365 57.7947 152.373L57.9119 149.66H62.1951ZM66.6862 156.117C65.8268 156.117 65.1276 155.836 64.5885 155.273C64.0495 154.707 63.7799 153.951 63.7799 153.006V152.807C63.7799 152.178 63.8991 151.617 64.1373 151.125C64.3795 150.629 64.7155 150.242 65.1452 149.965C65.5788 149.684 66.0475 149.543 66.5514 149.543C67.3756 149.543 68.0163 149.814 68.4733 150.357C68.9303 150.9 69.1588 151.678 69.1588 152.689V153.141H64.8639C64.8795 153.766 65.0612 154.271 65.4088 154.658C65.7604 155.041 66.2057 155.232 66.7448 155.232C67.1276 155.232 67.4518 155.154 67.7174 154.998C67.983 154.842 68.2155 154.635 68.4147 154.377L69.0768 154.893C68.5455 155.709 67.7487 156.117 66.6862 156.117ZM66.5514 150.434C66.1139 150.434 65.7467 150.594 65.4498 150.914C65.153 151.23 64.9694 151.676 64.8991 152.25H68.0748V152.168C68.0436 151.617 67.8952 151.191 67.6295 150.891C67.3639 150.586 67.0045 150.434 66.5514 150.434ZM70.3042 152.947C70.3042 151.889 70.5093 151.057 70.9195 150.451C71.3296 149.846 71.8921 149.543 72.607 149.543C72.939 149.543 73.23 149.6 73.48 149.713V147H74.564V149.748C74.8374 149.611 75.1577 149.543 75.5249 149.543C76.2437 149.543 76.8081 149.846 77.2183 150.451C77.6284 151.057 77.8335 151.93 77.8335 153.07C77.8335 154.004 77.6284 154.746 77.2183 155.297C76.812 155.848 76.2515 156.123 75.5366 156.123C75.1577 156.123 74.8335 156.061 74.564 155.936V158.438H73.48V155.953C73.2222 156.066 72.9273 156.123 72.5952 156.123C71.8843 156.123 71.3237 155.848 70.9136 155.297C70.5073 154.746 70.3042 153.992 70.3042 153.035V152.947ZM76.7495 152.947C76.7495 152.15 76.6128 151.533 76.3394 151.096C76.0659 150.654 75.689 150.434 75.2085 150.434C74.9624 150.434 74.7476 150.473 74.564 150.551V155.139C74.7398 155.205 74.9585 155.238 75.2202 155.238C75.7046 155.238 76.0796 155.051 76.3452 154.676C76.6148 154.301 76.7495 153.725 76.7495 152.947ZM71.3882 153.07C71.3882 153.781 71.5152 154.32 71.7691 154.688C72.023 155.055 72.3882 155.238 72.8648 155.238C73.0913 155.238 73.2964 155.203 73.48 155.133V150.533C73.3159 150.467 73.1148 150.434 72.8765 150.434C72.3999 150.434 72.0327 150.646 71.7749 151.072C71.5171 151.498 71.3882 152.164 71.3882 153.07ZM79.0785 152.771C79.0785 152.15 79.1996 151.592 79.4418 151.096C79.6879 150.6 80.0277 150.217 80.4613 149.947C80.8988 149.678 81.3969 149.543 81.9555 149.543C82.8187 149.543 83.516 149.842 84.0473 150.439C84.5824 151.037 84.85 151.832 84.85 152.824V152.9C84.85 153.518 84.7309 154.072 84.4926 154.564C84.2582 155.053 83.9203 155.434 83.4789 155.707C83.0414 155.98 82.5375 156.117 81.9672 156.117C81.1078 156.117 80.4105 155.818 79.8754 155.221C79.3441 154.623 79.0785 153.832 79.0785 152.848V152.771ZM80.1684 152.9C80.1684 153.604 80.3305 154.168 80.6547 154.594C80.9828 155.02 81.4203 155.232 81.9672 155.232C82.518 155.232 82.9555 155.018 83.2797 154.588C83.6039 154.154 83.766 153.549 83.766 152.771C83.766 152.076 83.6 151.514 83.268 151.084C82.9398 150.65 82.5023 150.434 81.9555 150.434C81.4203 150.434 80.9887 150.646 80.6605 151.072C80.3324 151.498 80.1684 152.107 80.1684 152.9ZM91.5091 156H90.4251V153.293H87.513V156H86.4231V149.66H87.513V152.408H90.4251V149.66H91.5091V156Z" fill="#757575"/>
<path d="M68.996 185.123L67.1579 184.913C66.7164 184.862 66.2822 185.014 65.971 185.325L64.6395 186.657C62.5914 185.615 60.9125 183.943 59.8704 181.888L61.2092 180.549C61.5204 180.238 61.6724 179.804 61.6217 179.362L61.4118 177.538C61.325 176.808 60.7099 176.258 59.9717 176.258H58.7198C57.902 176.258 57.2217 176.938 57.2724 177.756C57.656 183.936 62.5987 188.871 68.7717 189.255C69.5894 189.306 70.2697 188.625 70.2697 187.807V186.556C70.2769 185.825 69.7269 185.209 68.996 185.123Z" fill="#212121"/>
<rect x="43.5" y="231.5" width="447" height="39" rx="3.5" stroke="#212121" stroke-opacity="0.2"/>
<path d="M50.5059 224H49.375V216.395H45.168V224H44.043V215.469H50.5059V224ZM52.2196 220.771C52.2196 220.15 52.3407 219.592 52.5829 219.096C52.829 218.6 53.1688 218.217 53.6024 217.947C54.0399 217.678 54.538 217.543 55.0966 217.543C55.9598 217.543 56.6571 217.842 57.1884 218.439C57.7235 219.037 57.9911 219.832 57.9911 220.824V220.9C57.9911 221.518 57.872 222.072 57.6337 222.564C57.3993 223.053 57.0614 223.434 56.62 223.707C56.1825 223.98 55.6786 224.117 55.1083 224.117C54.2489 224.117 53.5516 223.818 53.0165 223.221C52.4852 222.623 52.2196 221.832 52.2196 220.848V220.771ZM53.3095 220.9C53.3095 221.604 53.4716 222.168 53.7958 222.594C54.1239 223.02 54.5614 223.232 55.1083 223.232C55.6591 223.232 56.0966 223.018 56.4208 222.588C56.745 222.154 56.9071 221.549 56.9071 220.771C56.9071 220.076 56.7411 219.514 56.4091 219.084C56.0809 218.65 55.6434 218.434 55.0966 218.434C54.5614 218.434 54.1298 218.646 53.8016 219.072C53.4735 219.498 53.3095 220.107 53.3095 220.9ZM64.2576 224H63.1677V221.703C62.6912 221.828 62.2029 221.891 61.7029 221.891C60.9099 221.891 60.3045 221.688 59.8865 221.281C59.4724 220.875 59.2615 220.297 59.2537 219.547V217.654H60.3377V219.582C60.3572 220.527 60.8123 221 61.7029 221C62.2029 221 62.6912 220.938 63.1677 220.812V217.66H64.2576V224ZM70.8288 218.539H68.7018V224H67.6178V218.539H65.5319V217.66H70.8288V218.539ZM75.8237 224C75.7612 223.875 75.7105 223.652 75.6714 223.332C75.1675 223.855 74.5659 224.117 73.8667 224.117C73.2417 224.117 72.728 223.941 72.3257 223.59C71.9273 223.234 71.728 222.785 71.728 222.242C71.728 221.582 71.978 221.07 72.478 220.707C72.982 220.34 73.689 220.156 74.5991 220.156H75.6538V219.658C75.6538 219.279 75.5405 218.979 75.314 218.756C75.0874 218.529 74.7534 218.416 74.312 218.416C73.9253 218.416 73.6011 218.514 73.3394 218.709C73.0777 218.904 72.9468 219.141 72.9468 219.418H71.857C71.857 219.102 71.9683 218.797 72.1909 218.504C72.4175 218.207 72.7222 217.973 73.105 217.801C73.4917 217.629 73.9155 217.543 74.3765 217.543C75.107 217.543 75.6792 217.727 76.0933 218.094C76.5073 218.457 76.7222 218.959 76.7378 219.6V222.518C76.7378 223.1 76.812 223.562 76.9605 223.906V224H75.8237ZM74.0249 223.174C74.3648 223.174 74.687 223.086 74.9917 222.91C75.2964 222.734 75.5171 222.506 75.6538 222.225V220.924H74.8042C73.4761 220.924 72.812 221.312 72.812 222.09C72.812 222.43 72.9253 222.695 73.1519 222.887C73.3784 223.078 73.6695 223.174 74.0249 223.174Z" fill="#757575"/>
<path d="M70 245H58C57.175 245 56.5075 245.675 56.5075 246.5L56.5 255.5C56.5 256.325 57.175 257 58 257H70C70.825 257 71.5 256.325 71.5 255.5V246.5C71.5 245.675 70.825 245 70 245ZM69.7 248.188L64.3975 251.503C64.1575 251.653 63.8425 251.653 63.6025 251.503L58.3 248.188C58.1125 248.068 58 247.865 58 247.648C58 247.145 58.5475 246.845 58.975 247.108L64 250.25L69.025 247.108C69.4525 246.845 70 247.145 70 247.648C70 247.865 69.8875 248.068 69.7 248.188Z" fill="#212121"/>
<rect x="43.5" y="299.5" width="447" height="119" rx="3.5" stroke="#212121" stroke-opacity="0.2"/>
<path d="M59.9902 322V313.469H62.7793C63.7051 313.469 64.4004 313.66 64.8652 314.043C65.334 314.426 65.5684 314.992 65.5684 315.742C65.5684 316.141 65.4551 316.494 65.2285 316.803C65.002 317.107 64.6934 317.344 64.3027 317.512C64.7637 317.641 65.127 317.887 65.3926 318.25C65.6621 318.609 65.7969 319.039 65.7969 319.539C65.7969 320.305 65.5488 320.906 65.0527 321.344C64.5566 321.781 63.8555 322 62.9492 322H59.9902ZM61.1152 318.01V321.08H62.9727C63.4961 321.08 63.9082 320.945 64.209 320.676C64.5137 320.402 64.666 320.027 64.666 319.551C64.666 318.523 64.1074 318.01 62.9902 318.01H61.1152ZM61.1152 317.107H62.8145C63.3066 317.107 63.6992 316.984 63.9922 316.738C64.2891 316.492 64.4375 316.158 64.4375 315.736C64.4375 315.268 64.3008 314.928 64.0273 314.717C63.7539 314.502 63.3379 314.395 62.7793 314.395H61.1152V317.107ZM67.5165 322V315.66H69.9891C70.8329 315.66 71.4794 315.809 71.9286 316.105C72.3817 316.398 72.6083 316.83 72.6083 317.4C72.6083 317.693 72.5204 317.959 72.3446 318.197C72.1688 318.432 71.9091 318.611 71.5653 318.736C71.9481 318.826 72.2548 319.002 72.4852 319.264C72.7196 319.525 72.8368 319.838 72.8368 320.201C72.8368 320.783 72.622 321.229 72.1923 321.537C71.7665 321.846 71.163 322 70.3817 322H67.5165ZM68.6005 319.217V321.127H70.3934C70.8466 321.127 71.1845 321.043 71.4071 320.875C71.6337 320.707 71.747 320.471 71.747 320.166C71.747 319.533 71.2821 319.217 70.3524 319.217H68.6005ZM68.6005 318.35H70.0009C71.0165 318.35 71.5243 318.053 71.5243 317.459C71.5243 316.865 71.0438 316.559 70.0829 316.539H68.6005V318.35ZM77.0232 322.117C76.1638 322.117 75.4646 321.836 74.9255 321.273C74.3865 320.707 74.117 319.951 74.117 319.006V318.807C74.117 318.178 74.2361 317.617 74.4744 317.125C74.7166 316.629 75.0525 316.242 75.4822 315.965C75.9158 315.684 76.3845 315.543 76.8884 315.543C77.7127 315.543 78.3533 315.814 78.8103 316.357C79.2673 316.9 79.4959 317.678 79.4959 318.689V319.141H75.2009C75.2166 319.766 75.3982 320.271 75.7459 320.658C76.0974 321.041 76.5427 321.232 77.0818 321.232C77.4646 321.232 77.7888 321.154 78.0545 320.998C78.3201 320.842 78.5525 320.635 78.7517 320.377L79.4138 320.893C78.8826 321.709 78.0857 322.117 77.0232 322.117ZM76.8884 316.434C76.4509 316.434 76.0837 316.594 75.7869 316.914C75.49 317.23 75.3064 317.676 75.2361 318.25H78.4119V318.168C78.3806 317.617 78.2322 317.191 77.9666 316.891C77.7009 316.586 77.3416 316.434 76.8884 316.434ZM80.8229 321.115L81.1979 320.652C81.6198 320.105 81.86 319.285 81.9186 318.191L82.0182 315.66H86.1022V321.115H86.9166V323.863H85.8327V322H81.4088V323.863H80.3248L80.3307 321.115H80.8229ZM82.1061 321.115H85.0182V316.662H83.067L83.0026 318.174C82.9362 319.436 82.6373 320.416 82.1061 321.115ZM92.3394 315.66H93.4234V322H92.3394V317.377L89.4155 322H88.3316V315.66H89.4155V320.289L92.3394 315.66ZM99.9945 316.539H97.8676V322H96.7836V316.539H94.6977V315.66H99.9945V316.539ZM103.331 322.117C102.472 322.117 101.773 321.836 101.234 321.273C100.695 320.707 100.425 319.951 100.425 319.006V318.807C100.425 318.178 100.544 317.617 100.783 317.125C101.025 316.629 101.361 316.242 101.79 315.965C102.224 315.684 102.693 315.543 103.197 315.543C104.021 315.543 104.661 315.814 105.118 316.357C105.575 316.9 105.804 317.678 105.804 318.689V319.141H101.509C101.525 319.766 101.706 320.271 102.054 320.658C102.406 321.041 102.851 321.232 103.39 321.232C103.773 321.232 104.097 321.154 104.363 320.998C104.628 320.842 104.861 320.635 105.06 320.377L105.722 320.893C105.191 321.709 104.394 322.117 103.331 322.117ZM103.197 316.434C102.759 316.434 102.392 316.594 102.095 316.914C101.798 317.23 101.615 317.676 101.544 318.25H104.72V318.168C104.689 317.617 104.54 317.191 104.275 316.891C104.009 316.586 103.65 316.434 103.197 316.434ZM114.991 316.539H112.864V322H111.78V316.539H109.694V315.66H114.991V316.539ZM118.328 322.117C117.469 322.117 116.769 321.836 116.23 321.273C115.691 320.707 115.422 319.951 115.422 319.006V318.807C115.422 318.178 115.541 317.617 115.779 317.125C116.021 316.629 116.357 316.242 116.787 315.965C117.221 315.684 117.689 315.543 118.193 315.543C119.018 315.543 119.658 315.814 120.115 316.357C120.572 316.9 120.801 317.678 120.801 318.689V319.141H116.506C116.521 319.766 116.703 320.271 117.051 320.658C117.402 321.041 117.848 321.232 118.387 321.232C118.769 321.232 119.094 321.154 119.359 320.998C119.625 320.842 119.857 320.635 120.057 320.377L120.719 320.893C120.187 321.709 119.391 322.117 118.328 322.117ZM118.193 316.434C117.756 316.434 117.389 316.594 117.092 316.914C116.795 317.23 116.611 317.676 116.541 318.25H119.717V318.168C119.685 317.617 119.537 317.191 119.271 316.891C119.006 316.586 118.646 316.434 118.193 316.434ZM124.155 319.299H123.364V322H122.274V315.66H123.364V318.344H124.073L126.206 315.66H127.518L125.011 318.707L127.729 322H126.352L124.155 319.299ZM131.23 321.232C131.617 321.232 131.955 321.115 132.244 320.881C132.533 320.646 132.693 320.354 132.724 320.002H133.75C133.73 320.365 133.605 320.711 133.375 321.039C133.144 321.367 132.836 321.629 132.449 321.824C132.066 322.02 131.66 322.117 131.23 322.117C130.367 322.117 129.679 321.83 129.168 321.256C128.66 320.678 128.406 319.889 128.406 318.889V318.707C128.406 318.09 128.519 317.541 128.746 317.061C128.972 316.58 129.297 316.207 129.718 315.941C130.144 315.676 130.646 315.543 131.224 315.543C131.935 315.543 132.525 315.756 132.994 316.182C133.466 316.607 133.718 317.16 133.75 317.84H132.724C132.693 317.43 132.537 317.094 132.256 316.832C131.978 316.566 131.634 316.434 131.224 316.434C130.674 316.434 130.246 316.633 129.941 317.031C129.64 317.426 129.49 317.998 129.49 318.748V318.953C129.49 319.684 129.64 320.246 129.941 320.641C130.242 321.035 130.672 321.232 131.23 321.232ZM139.799 316.539H137.672V322H136.588V316.539H134.503V315.66H139.799V316.539Z" fill="#757575" fill-opacity="0.5"/>
<path d="M46.2051 288.168H45.168V292H44.043V283.469H45.168V287.23H46.0469L49.0293 283.469H50.4297L47.1719 287.605L50.6699 292H49.293L46.2051 288.168ZM51.2001 288.771C51.2001 288.15 51.3212 287.592 51.5634 287.096C51.8095 286.6 52.1493 286.217 52.5829 285.947C53.0204 285.678 53.5184 285.543 54.077 285.543C54.9403 285.543 55.6376 285.842 56.1688 286.439C56.704 287.037 56.9716 287.832 56.9716 288.824V288.9C56.9716 289.518 56.8524 290.072 56.6141 290.564C56.3798 291.053 56.0419 291.434 55.6005 291.707C55.163 291.98 54.6591 292.117 54.0887 292.117C53.2294 292.117 52.5321 291.818 51.997 291.221C51.4657 290.623 51.2001 289.832 51.2001 288.848V288.771ZM52.2899 288.9C52.2899 289.604 52.452 290.168 52.7762 290.594C53.1044 291.02 53.5419 291.232 54.0887 291.232C54.6395 291.232 55.077 291.018 55.4012 290.588C55.7255 290.154 55.8876 289.549 55.8876 288.771C55.8876 288.076 55.7216 287.514 55.3895 287.084C55.0614 286.65 54.6239 286.434 54.077 286.434C53.5419 286.434 53.1102 286.646 52.7821 287.072C52.454 287.498 52.2899 288.107 52.2899 288.9ZM62.1013 290.564L64.2576 285.66H65.6111V292H64.5271V287.389L62.4763 292H61.7263L59.6345 287.289V292H58.5505V285.66H59.9568L62.1013 290.564ZM71.1276 290.564L73.2838 285.66H74.6373V292H73.5534V287.389L71.5026 292H70.7526L68.6608 287.289V292H67.5768V285.66H68.983L71.1276 290.564ZM79.1343 292.117C78.2749 292.117 77.5757 291.836 77.0366 291.273C76.4976 290.707 76.228 289.951 76.228 289.006V288.807C76.228 288.178 76.3472 287.617 76.5855 287.125C76.8277 286.629 77.1636 286.242 77.5933 285.965C78.0269 285.684 78.4956 285.543 78.9995 285.543C79.8237 285.543 80.4644 285.814 80.9214 286.357C81.3784 286.9 81.607 287.678 81.607 288.689V289.141H77.312C77.3277 289.766 77.5093 290.271 77.857 290.658C78.2085 291.041 78.6538 291.232 79.1929 291.232C79.5757 291.232 79.8999 291.154 80.1655 290.998C80.4312 290.842 80.6636 290.635 80.8628 290.377L81.5249 290.893C80.9937 291.709 80.1968 292.117 79.1343 292.117ZM78.9995 286.434C78.562 286.434 78.1948 286.594 77.898 286.914C77.6011 287.23 77.4175 287.676 77.3472 288.25H80.523V288.168C80.4917 287.617 80.3433 287.191 80.0777 286.891C79.812 286.586 79.4527 286.434 78.9995 286.434ZM88.1664 292H87.0824V289.293H84.1703V292H83.0805V285.66H84.1703V288.408H87.0824V285.66H88.1664V292ZM94.7434 286.539H92.6165V292H91.5325V286.539H89.4466V285.66H94.7434V286.539ZM99.7384 292C99.6759 291.875 99.6252 291.652 99.5861 291.332C99.0822 291.855 98.4806 292.117 97.7814 292.117C97.1564 292.117 96.6427 291.941 96.2404 291.59C95.842 291.234 95.6427 290.785 95.6427 290.242C95.6427 289.582 95.8927 289.07 96.3927 288.707C96.8966 288.34 97.6037 288.156 98.5138 288.156H99.5685V287.658C99.5685 287.279 99.4552 286.979 99.2287 286.756C99.0021 286.529 98.6681 286.416 98.2267 286.416C97.84 286.416 97.5158 286.514 97.2541 286.709C96.9923 286.904 96.8615 287.141 96.8615 287.418H95.7716C95.7716 287.102 95.883 286.797 96.1056 286.504C96.3322 286.207 96.6369 285.973 97.0197 285.801C97.4064 285.629 97.8302 285.543 98.2912 285.543C99.0216 285.543 99.5939 285.727 100.008 286.094C100.422 286.457 100.637 286.959 100.653 287.6V290.518C100.653 291.1 100.727 291.562 100.875 291.906V292H99.7384ZM97.9396 291.174C98.2795 291.174 98.6017 291.086 98.9064 290.91C99.2111 290.734 99.4318 290.506 99.5685 290.225V288.924H98.7189C97.3908 288.924 96.7267 289.312 96.7267 290.09C96.7267 290.43 96.84 290.695 97.0666 290.887C97.2931 291.078 97.5841 291.174 97.9396 291.174ZM107.827 288.9C107.827 289.865 107.606 290.643 107.165 291.232C106.724 291.822 106.126 292.117 105.372 292.117C104.603 292.117 103.997 291.873 103.556 291.385V294.438H102.472V285.66H103.462L103.515 286.363C103.956 285.816 104.569 285.543 105.355 285.543C106.116 285.543 106.718 285.83 107.159 286.404C107.605 286.979 107.827 287.777 107.827 288.801V288.9ZM106.743 288.777C106.743 288.062 106.591 287.498 106.286 287.084C105.981 286.67 105.564 286.463 105.032 286.463C104.376 286.463 103.884 286.754 103.556 287.336V290.365C103.88 290.943 104.376 291.232 105.044 291.232C105.564 291.232 105.976 291.027 106.28 290.617C106.589 290.203 106.743 289.59 106.743 288.777ZM113.432 285.66H114.516V292H113.432V287.377L110.508 292H109.424V285.66H110.508V290.289L113.432 285.66ZM120.477 285.66H121.561V292H120.477V287.377L117.554 292H116.47V285.66H117.554V290.289L120.477 285.66ZM120.77 283.352C120.77 283.824 120.608 284.205 120.284 284.494C119.964 284.779 119.542 284.922 119.018 284.922C118.495 284.922 118.071 284.777 117.747 284.488C117.423 284.199 117.261 283.82 117.261 283.352H118.145C118.145 283.625 118.22 283.84 118.368 283.996C118.516 284.148 118.733 284.225 119.018 284.225C119.292 284.225 119.505 284.148 119.657 283.996C119.813 283.844 119.891 283.629 119.891 283.352H120.77Z" fill="#757575"/>
</g>
<path d="M69.2222 445.667V457.333H56.7778V445.667H69.2222ZM69.2222 444H56.7778C55.8 444 55 444.75 55 445.667V457.333C55 458.25 55.8 459 56.7778 459H69.2222C70.2 459 71 458.25 71 457.333V445.667C71 444.75 70.2 444 69.2222 444Z" fill="#212121"/>
<path d="M87.8531 452.842C87.7301 453.895 87.3404 454.708 86.6842 455.282C86.0325 455.852 85.1643 456.137 84.0797 456.137C82.9039 456.137 81.9605 455.715 81.2496 454.872C80.5432 454.029 80.19 452.901 80.19 451.488V450.531C80.19 449.606 80.3541 448.793 80.6822 448.091C81.0149 447.389 81.4843 446.851 82.0904 446.478C82.6965 446.099 83.3984 445.91 84.1959 445.91C85.2532 445.91 86.1008 446.206 86.7389 446.799C87.3769 447.387 87.7483 448.202 87.8531 449.246H86.5338C86.4199 448.453 86.1715 447.879 85.7887 447.523C85.4104 447.168 84.8795 446.99 84.1959 446.99C83.3574 446.99 82.6988 447.3 82.2203 447.92C81.7463 448.54 81.5094 449.422 81.5094 450.565V451.529C81.5094 452.609 81.735 453.468 82.1861 454.106C82.6373 454.744 83.2685 455.063 84.0797 455.063C84.8088 455.063 85.3671 454.899 85.7545 454.571C86.1464 454.239 86.4062 453.662 86.5338 452.842H87.8531ZM89.5378 452.233C89.5378 451.509 89.679 450.857 89.9616 450.278C90.2487 449.7 90.6452 449.253 91.151 448.938C91.6615 448.624 92.2425 448.467 92.8942 448.467C93.9014 448.467 94.7149 448.815 95.3346 449.513C95.959 450.21 96.2712 451.137 96.2712 452.295V452.384C96.2712 453.104 96.1322 453.751 95.8542 454.325C95.5807 454.895 95.1865 455.339 94.6716 455.658C94.1611 455.977 93.5732 456.137 92.9079 456.137C91.9053 456.137 91.0918 455.788 90.4675 455.091C89.8477 454.394 89.5378 453.471 89.5378 452.322V452.233ZM90.8093 452.384C90.8093 453.204 90.9984 453.863 91.3766 454.359C91.7594 454.856 92.2699 455.104 92.9079 455.104C93.5505 455.104 94.0609 454.854 94.4391 454.353C94.8174 453.847 95.0065 453.14 95.0065 452.233C95.0065 451.422 94.8128 450.766 94.4255 450.265C94.0427 449.759 93.5322 449.506 92.8942 449.506C92.2699 449.506 91.7663 449.754 91.3835 450.251C91.0007 450.748 90.8093 451.459 90.8093 452.384ZM103.055 449.649H99.6443V456H98.3728V448.604H103.055V449.649ZM110.366 448.604V456H109.095V449.649H106.579L106.429 452.418C106.347 453.689 106.132 454.599 105.786 455.146C105.444 455.692 104.9 455.977 104.152 456H103.646V454.886L104.009 454.858C104.419 454.813 104.713 454.576 104.89 454.147C105.068 453.719 105.182 452.926 105.232 451.769L105.369 448.604H110.366ZM117.383 456C117.31 455.854 117.251 455.594 117.205 455.221C116.617 455.831 115.915 456.137 115.1 456.137C114.37 456.137 113.771 455.932 113.302 455.521C112.837 455.107 112.604 454.583 112.604 453.949C112.604 453.179 112.896 452.582 113.479 452.158C114.067 451.73 114.892 451.516 115.954 451.516H117.184V450.935C117.184 450.493 117.052 450.142 116.788 449.882C116.524 449.618 116.134 449.485 115.619 449.485C115.168 449.485 114.79 449.599 114.484 449.827C114.179 450.055 114.026 450.331 114.026 450.654H112.755C112.755 450.285 112.885 449.93 113.144 449.588C113.409 449.242 113.764 448.968 114.211 448.768C114.662 448.567 115.156 448.467 115.694 448.467C116.546 448.467 117.214 448.681 117.697 449.109C118.18 449.533 118.431 450.119 118.449 450.866V454.271C118.449 454.95 118.536 455.49 118.709 455.891V456H117.383ZM115.284 455.036C115.681 455.036 116.057 454.934 116.412 454.729C116.767 454.523 117.025 454.257 117.184 453.929V452.411H116.193C114.644 452.411 113.869 452.865 113.869 453.771C113.869 454.168 114.001 454.478 114.266 454.701C114.53 454.924 114.869 455.036 115.284 455.036ZM122.232 448.604V454.968H124.939V448.604H126.204V454.968H128.904V448.604H130.176V456H120.961V448.604H122.232ZM137.158 456C137.085 455.854 137.026 455.594 136.981 455.221C136.393 455.831 135.691 456.137 134.875 456.137C134.146 456.137 133.547 455.932 133.077 455.521C132.612 455.107 132.38 454.583 132.38 453.949C132.38 453.179 132.672 452.582 133.255 452.158C133.843 451.73 134.668 451.516 135.73 451.516H136.96V450.935C136.96 450.493 136.828 450.142 136.564 449.882C136.299 449.618 135.91 449.485 135.395 449.485C134.943 449.485 134.565 449.599 134.26 449.827C133.954 450.055 133.802 450.331 133.802 450.654H132.53C132.53 450.285 132.66 449.93 132.92 449.588C133.184 449.242 133.54 448.968 133.986 448.768C134.438 448.567 134.932 448.467 135.47 448.467C136.322 448.467 136.99 448.681 137.473 449.109C137.956 449.533 138.206 450.119 138.225 450.866V454.271C138.225 454.95 138.311 455.49 138.484 455.891V456H137.158ZM135.06 455.036C135.456 455.036 135.832 454.934 136.188 454.729C136.543 454.523 136.801 454.257 136.96 453.929V452.411H135.969C134.419 452.411 133.645 452.865 133.645 453.771C133.645 454.168 133.777 454.478 134.041 454.701C134.305 454.924 134.645 455.036 135.06 455.036ZM142.008 451.741H143.785C143.881 450.757 144.23 449.966 144.831 449.369C145.437 448.768 146.201 448.467 147.121 448.467C148.087 448.467 148.878 448.793 149.493 449.444C150.109 450.096 150.441 450.944 150.491 451.987L150.498 452.384C150.498 453.104 150.357 453.753 150.074 454.332C149.792 454.911 149.395 455.357 148.885 455.672C148.374 455.982 147.791 456.137 147.135 456.137C146.182 456.137 145.403 455.827 144.797 455.207C144.191 454.583 143.851 453.774 143.778 452.78H142.008V456H140.743V448.604H142.008V451.741ZM145.029 452.384C145.029 453.204 145.219 453.863 145.597 454.359C145.98 454.856 146.492 455.104 147.135 455.104C147.777 455.104 148.286 454.852 148.659 454.346C149.038 453.84 149.227 453.136 149.227 452.233C149.227 451.427 149.035 450.771 148.652 450.265C148.27 449.759 147.759 449.506 147.121 449.506C146.492 449.506 145.986 449.754 145.604 450.251C145.221 450.748 145.029 451.459 145.029 452.384ZM155.444 455.104C155.895 455.104 156.289 454.968 156.626 454.694C156.963 454.421 157.15 454.079 157.187 453.669H158.383C158.36 454.093 158.214 454.496 157.946 454.879C157.677 455.262 157.317 455.567 156.865 455.795C156.419 456.023 155.945 456.137 155.444 456.137C154.436 456.137 153.634 455.802 153.037 455.132C152.445 454.457 152.149 453.537 152.149 452.37V452.158C152.149 451.438 152.281 450.798 152.545 450.237C152.809 449.677 153.188 449.242 153.68 448.932C154.177 448.622 154.762 448.467 155.437 448.467C156.266 448.467 156.954 448.715 157.501 449.212C158.053 449.709 158.347 450.354 158.383 451.146H157.187C157.15 450.668 156.968 450.276 156.64 449.971C156.316 449.661 155.915 449.506 155.437 449.506C154.794 449.506 154.295 449.738 153.94 450.203C153.589 450.663 153.413 451.331 153.413 452.206V452.445C153.413 453.298 153.589 453.954 153.94 454.414C154.291 454.874 154.792 455.104 155.444 455.104ZM161.606 451.153H163.527C164.365 451.162 165.028 451.381 165.516 451.81C166.004 452.238 166.247 452.819 166.247 453.553C166.247 454.291 165.997 454.883 165.495 455.33C164.994 455.777 164.32 456 163.472 456H160.341V448.604H161.606V451.153ZM161.606 452.186V454.968H163.486C163.96 454.968 164.326 454.847 164.586 454.605C164.846 454.359 164.976 454.024 164.976 453.601C164.976 453.19 164.848 452.855 164.593 452.596C164.342 452.331 163.989 452.195 163.534 452.186H161.606ZM175.106 455.104C175.557 455.104 175.951 454.968 176.289 454.694C176.626 454.421 176.813 454.079 176.849 453.669H178.045C178.023 454.093 177.877 454.496 177.608 454.879C177.339 455.262 176.979 455.567 176.528 455.795C176.081 456.023 175.607 456.137 175.106 456.137C174.099 456.137 173.297 455.802 172.7 455.132C172.107 454.457 171.811 453.537 171.811 452.37V452.158C171.811 451.438 171.943 450.798 172.207 450.237C172.472 449.677 172.85 449.242 173.342 448.932C173.839 448.622 174.425 448.467 175.099 448.467C175.929 448.467 176.617 448.715 177.164 449.212C177.715 449.709 178.009 450.354 178.045 451.146H176.849C176.813 450.668 176.63 450.276 176.302 449.971C175.979 449.661 175.578 449.506 175.099 449.506C174.457 449.506 173.957 449.738 173.602 450.203C173.251 450.663 173.076 451.331 173.076 452.206V452.445C173.076 453.298 173.251 453.954 173.602 454.414C173.953 454.874 174.454 455.104 175.106 455.104ZM190.028 452.384C190.028 453.509 189.77 454.416 189.256 455.104C188.741 455.793 188.043 456.137 187.164 456.137C186.266 456.137 185.56 455.852 185.045 455.282V458.844H183.78V448.604H184.935L184.997 449.424C185.512 448.786 186.227 448.467 187.143 448.467C188.032 448.467 188.734 448.802 189.249 449.472C189.768 450.142 190.028 451.074 190.028 452.268V452.384ZM188.763 452.24C188.763 451.406 188.586 450.748 188.23 450.265C187.875 449.782 187.387 449.54 186.767 449.54C186.002 449.54 185.427 449.88 185.045 450.559V454.093C185.423 454.767 186.002 455.104 186.781 455.104C187.387 455.104 187.868 454.865 188.223 454.387C188.583 453.904 188.763 453.188 188.763 452.24ZM196.628 456C196.555 455.854 196.495 455.594 196.45 455.221C195.862 455.831 195.16 456.137 194.344 456.137C193.615 456.137 193.016 455.932 192.547 455.521C192.082 455.107 191.849 454.583 191.849 453.949C191.849 453.179 192.141 452.582 192.724 452.158C193.312 451.73 194.137 451.516 195.199 451.516H196.429V450.935C196.429 450.493 196.297 450.142 196.033 449.882C195.769 449.618 195.379 449.485 194.864 449.485C194.413 449.485 194.035 449.599 193.729 449.827C193.424 450.055 193.271 450.331 193.271 450.654H192C192 450.285 192.13 449.93 192.389 449.588C192.654 449.242 193.009 448.968 193.456 448.768C193.907 448.567 194.401 448.467 194.939 448.467C195.791 448.467 196.459 448.681 196.942 449.109C197.425 449.533 197.676 450.119 197.694 450.866V454.271C197.694 454.95 197.781 455.49 197.954 455.891V456H196.628ZM194.529 455.036C194.925 455.036 195.301 454.934 195.657 454.729C196.012 454.523 196.27 454.257 196.429 453.929V452.411H195.438C193.889 452.411 193.114 452.865 193.114 453.771C193.114 454.168 193.246 454.478 193.51 454.701C193.775 454.924 194.114 455.036 194.529 455.036ZM203.063 455.104C203.514 455.104 203.909 454.968 204.246 454.694C204.583 454.421 204.77 454.079 204.806 453.669H206.003C205.98 454.093 205.834 454.496 205.565 454.879C205.296 455.262 204.936 455.567 204.485 455.795C204.039 456.023 203.565 456.137 203.063 456.137C202.056 456.137 201.254 455.802 200.657 455.132C200.065 454.457 199.768 453.537 199.768 452.37V452.158C199.768 451.438 199.901 450.798 200.165 450.237C200.429 449.677 200.807 449.242 201.3 448.932C201.796 448.622 202.382 448.467 203.056 448.467C203.886 448.467 204.574 448.715 205.121 449.212C205.672 449.709 205.966 450.354 206.003 451.146H204.806C204.77 450.668 204.588 450.276 204.26 449.971C203.936 449.661 203.535 449.506 203.056 449.506C202.414 449.506 201.915 449.738 201.559 450.203C201.208 450.663 201.033 451.331 201.033 452.206V452.445C201.033 453.298 201.208 453.954 201.559 454.414C201.91 454.874 202.412 455.104 203.063 455.104ZM210.811 455.104C211.263 455.104 211.657 454.968 211.994 454.694C212.331 454.421 212.518 454.079 212.555 453.669H213.751C213.728 454.093 213.582 454.496 213.313 454.879C213.044 455.262 212.684 455.567 212.233 455.795C211.787 456.023 211.313 456.137 210.811 456.137C209.804 456.137 209.002 455.802 208.405 455.132C207.813 454.457 207.516 453.537 207.516 452.37V452.158C207.516 451.438 207.649 450.798 207.913 450.237C208.177 449.677 208.556 449.242 209.048 448.932C209.544 448.622 210.13 448.467 210.805 448.467C211.634 448.467 212.322 448.715 212.869 449.212C213.42 449.709 213.714 450.354 213.751 451.146H212.555C212.518 450.668 212.336 450.276 212.008 449.971C211.684 449.661 211.283 449.506 210.805 449.506C210.162 449.506 209.663 449.738 209.307 450.203C208.957 450.663 208.781 451.331 208.781 452.206V452.445C208.781 453.298 208.957 453.954 209.307 454.414C209.658 454.874 210.16 455.104 210.811 455.104ZM216.974 451.153H218.894C219.733 451.162 220.396 451.381 220.884 451.81C221.371 452.238 221.615 452.819 221.615 453.553C221.615 454.291 221.365 454.883 220.863 455.33C220.362 455.777 219.687 456 218.84 456H215.709V448.604H216.974V451.153ZM224.254 456H222.982V448.604H224.254V456ZM216.974 452.186V454.968H218.853C219.327 454.968 219.694 454.847 219.954 454.605C220.214 454.359 220.344 454.024 220.344 453.601C220.344 453.19 220.216 452.855 219.961 452.596C219.71 452.331 219.357 452.195 218.901 452.186H216.974ZM232.945 448.604V456H231.674V449.649H229.158L229.008 452.418C228.926 453.689 228.712 454.599 228.365 455.146C228.023 455.692 227.479 455.977 226.731 456H226.226V454.886L226.588 454.858C226.998 454.813 227.292 454.576 227.47 454.147C227.647 453.719 227.761 452.926 227.812 451.769L227.948 448.604H232.945ZM237.699 452.849H236.776V456H235.505V448.604H236.776V451.734H237.604L240.092 448.604H241.623L238.697 452.158L241.869 456H240.263L237.699 452.849ZM242.891 452.233C242.891 451.509 243.032 450.857 243.315 450.278C243.602 449.7 243.998 449.253 244.504 448.938C245.015 448.624 245.596 448.467 246.247 448.467C247.254 448.467 248.068 448.815 248.688 449.513C249.312 450.21 249.624 451.137 249.624 452.295V452.384C249.624 453.104 249.485 453.751 249.207 454.325C248.934 454.895 248.54 455.339 248.025 455.658C247.514 455.977 246.926 456.137 246.261 456.137C245.258 456.137 244.445 455.788 243.82 455.091C243.201 454.394 242.891 453.471 242.891 452.322V452.233ZM244.162 452.384C244.162 453.204 244.351 453.863 244.73 454.359C245.112 454.856 245.623 455.104 246.261 455.104C246.904 455.104 247.414 454.854 247.792 454.353C248.17 453.847 248.36 453.14 248.36 452.233C248.36 451.422 248.166 450.766 247.779 450.265C247.396 449.759 246.885 449.506 246.247 449.506C245.623 449.506 245.119 449.754 244.737 450.251C244.354 450.748 244.162 451.459 244.162 452.384ZM256.415 448.604H257.68V456H256.415V450.606L253.004 456H251.74V448.604H253.004V454.004L256.415 448.604ZM256.757 445.91C256.757 446.462 256.568 446.906 256.19 447.243C255.816 447.576 255.324 447.742 254.713 447.742C254.102 447.742 253.608 447.574 253.23 447.236C252.852 446.899 252.662 446.457 252.662 445.91H253.695C253.695 446.229 253.781 446.48 253.954 446.662C254.128 446.84 254.38 446.929 254.713 446.929C255.032 446.929 255.281 446.84 255.458 446.662C255.641 446.484 255.732 446.234 255.732 445.91H256.757ZM268.808 448.604H270.073V456H268.808V450.606L265.397 456H264.132V448.604H265.397V454.004L268.808 448.604ZM282.465 456H281.201V449.649H277.796V456H276.525V448.604H282.465V456ZM291.164 452.384C291.164 453.509 290.906 454.416 290.391 455.104C289.876 455.793 289.179 456.137 288.299 456.137C287.402 456.137 286.695 455.852 286.18 455.282V458.844H284.916V448.604H286.071L286.132 449.424C286.647 448.786 287.363 448.467 288.279 448.467C289.168 448.467 289.869 448.802 290.384 449.472C290.904 450.142 291.164 451.074 291.164 452.268V452.384ZM289.899 452.24C289.899 451.406 289.721 450.748 289.366 450.265C289.01 449.782 288.523 449.54 287.903 449.54C287.137 449.54 286.563 449.88 286.18 450.559V454.093C286.559 454.767 287.137 455.104 287.917 455.104C288.523 455.104 289.004 454.865 289.359 454.387C289.719 453.904 289.899 453.188 289.899 452.24ZM297.982 448.604H299.247V456H297.982V450.606L294.571 456H293.306V448.604H294.571V454.004L297.982 448.604ZM307.74 456H306.475V452.842H303.078V456H301.806V448.604H303.078V451.81H306.475V448.604H307.74V456ZM314.982 448.604H316.247V456H314.982V450.606L311.571 456H310.307V448.604H311.571V454.004L314.982 448.604ZM322.956 454.325L325.472 448.604H327.051V456H325.786V450.62L323.394 456H322.519L320.078 450.504V456H318.813V448.604H320.454L322.956 454.325ZM334.074 456C334.001 455.854 333.942 455.594 333.897 455.221C333.309 455.831 332.607 456.137 331.791 456.137C331.062 456.137 330.463 455.932 329.993 455.521C329.528 455.107 329.296 454.583 329.296 453.949C329.296 453.179 329.588 452.582 330.171 452.158C330.759 451.73 331.584 451.516 332.646 451.516H333.876V450.935C333.876 450.493 333.744 450.142 333.48 449.882C333.215 449.618 332.826 449.485 332.311 449.485C331.859 449.485 331.481 449.599 331.176 449.827C330.871 450.055 330.718 450.331 330.718 450.654H329.446C329.446 450.285 329.576 449.93 329.836 449.588C330.1 449.242 330.456 448.968 330.902 448.768C331.354 448.567 331.848 448.467 332.386 448.467C333.238 448.467 333.906 448.681 334.389 449.109C334.872 449.533 335.122 450.119 335.141 450.866V454.271C335.141 454.95 335.227 455.49 335.4 455.891V456H334.074ZM331.976 455.036C332.372 455.036 332.748 454.934 333.104 454.729C333.459 454.523 333.717 454.257 333.876 453.929V452.411H332.885C331.335 452.411 330.561 452.865 330.561 453.771C330.561 454.168 330.693 454.478 330.957 454.701C331.221 454.924 331.561 455.036 331.976 455.036ZM338.924 451.741H340.701C340.797 450.757 341.146 449.966 341.747 449.369C342.353 448.768 343.117 448.467 344.037 448.467C345.003 448.467 345.794 448.793 346.409 449.444C347.025 450.096 347.357 450.944 347.407 451.987L347.414 452.384C347.414 453.104 347.273 453.753 346.99 454.332C346.708 454.911 346.311 455.357 345.801 455.672C345.291 455.982 344.707 456.137 344.051 456.137C343.098 456.137 342.319 455.827 341.713 455.207C341.107 454.583 340.767 453.774 340.694 452.78H338.924V456H337.659V448.604H338.924V451.741ZM341.945 452.384C341.945 453.204 342.135 453.863 342.513 454.359C342.896 454.856 343.408 455.104 344.051 455.104C344.694 455.104 345.202 454.852 345.575 454.346C345.954 453.84 346.143 453.136 346.143 452.233C346.143 451.427 345.951 450.771 345.569 450.265C345.186 449.759 344.675 449.506 344.037 449.506C343.408 449.506 342.902 449.754 342.52 450.251C342.137 450.748 341.945 451.459 341.945 452.384Z" fill="#757575"/>
<path d="M356.902 451.823L359.192 446.047H360.716L357.196 454.339C356.959 454.868 356.738 455.243 356.533 455.467C356.327 455.686 356.086 455.854 355.808 455.973C355.534 456.087 355.19 456.144 354.776 456.144C354.416 456.144 354.186 456.123 354.085 456.082L354.126 455.043L354.748 455.07C355.227 455.07 355.582 454.84 355.815 454.38L355.986 454.024L356.245 453.416L352.855 446.047H354.325L356.902 451.823ZM365.012 455.104C365.463 455.104 365.857 454.968 366.195 454.694C366.532 454.421 366.719 454.079 366.755 453.669H367.952C367.929 454.093 367.783 454.496 367.514 454.879C367.245 455.262 366.885 455.567 366.434 455.795C365.987 456.023 365.513 456.137 365.012 456.137C364.005 456.137 363.203 455.802 362.606 455.132C362.013 454.457 361.717 453.537 361.717 452.37V452.158C361.717 451.438 361.849 450.798 362.114 450.237C362.378 449.677 362.756 449.242 363.248 448.932C363.745 448.622 364.331 448.467 365.005 448.467C365.835 448.467 366.523 448.715 367.07 449.212C367.621 449.709 367.915 450.354 367.952 451.146H366.755C366.719 450.668 366.537 450.276 366.208 449.971C365.885 449.661 365.484 449.506 365.005 449.506C364.363 449.506 363.864 449.738 363.508 450.203C363.157 450.663 362.982 451.331 362.982 452.206V452.445C362.982 453.298 363.157 453.954 363.508 454.414C363.859 454.874 364.36 455.104 365.012 455.104ZM375.857 448.604V456H374.585V449.649H372.07L371.919 452.418C371.837 453.689 371.623 454.599 371.277 455.146C370.935 455.692 370.39 455.977 369.643 456H369.137V454.886L369.499 454.858C369.91 454.813 370.204 454.576 370.381 454.147C370.559 453.719 370.673 452.926 370.723 451.769L370.86 448.604H375.857ZM377.972 452.233C377.972 451.509 378.114 450.857 378.396 450.278C378.683 449.7 379.08 449.253 379.586 448.938C380.096 448.624 380.677 448.467 381.329 448.467C382.336 448.467 383.149 448.815 383.769 449.513C384.393 450.21 384.706 451.137 384.706 452.295V452.384C384.706 453.104 384.567 453.751 384.289 454.325C384.015 454.895 383.621 455.339 383.106 455.658C382.596 455.977 382.008 456.137 381.342 456.137C380.34 456.137 379.526 455.788 378.902 455.091C378.282 454.394 377.972 453.471 377.972 452.322V452.233ZM379.244 452.384C379.244 453.204 379.433 453.863 379.811 454.359C380.194 454.856 380.704 455.104 381.342 455.104C381.985 455.104 382.495 454.854 382.874 454.353C383.252 453.847 383.441 453.14 383.441 452.233C383.441 451.422 383.247 450.766 382.86 450.265C382.477 449.759 381.967 449.506 381.329 449.506C380.704 449.506 380.201 449.754 379.818 450.251C379.435 450.748 379.244 451.459 379.244 452.384ZM386.828 456V448.604H389.713C390.697 448.604 391.451 448.777 391.975 449.123C392.504 449.465 392.768 449.968 392.768 450.634C392.768 450.976 392.666 451.285 392.461 451.563C392.255 451.837 391.952 452.047 391.551 452.192C391.998 452.297 392.356 452.502 392.625 452.808C392.898 453.113 393.035 453.478 393.035 453.901C393.035 454.58 392.784 455.1 392.283 455.46C391.786 455.82 391.082 456 390.171 456H386.828ZM388.092 452.753V454.981H390.184C390.713 454.981 391.107 454.883 391.367 454.688C391.631 454.492 391.763 454.216 391.763 453.86C391.763 453.122 391.221 452.753 390.136 452.753H388.092ZM388.092 451.741H389.726C390.911 451.741 391.504 451.395 391.504 450.702C391.504 450.009 390.943 449.652 389.822 449.629H388.092V451.741ZM399.915 448.604H401.179V456H399.915V450.606L396.504 456H395.239V448.604H396.504V454.004L399.915 448.604ZM409.283 448.604V456H408.012V453.122H406.104L404.361 456H402.994L404.853 452.931C404.379 452.757 404.015 452.491 403.76 452.131C403.509 451.766 403.384 451.342 403.384 450.859C403.384 450.185 403.637 449.643 404.142 449.232C404.648 448.818 405.325 448.608 406.173 448.604H409.283ZM404.655 450.873C404.655 451.233 404.778 451.525 405.024 451.748C405.27 451.967 405.596 452.078 406.002 452.083H408.012V449.629H406.193C405.724 449.629 405.35 449.745 405.072 449.978C404.794 450.205 404.655 450.504 404.655 450.873ZM415.564 454.968L416.002 454.428C416.494 453.79 416.774 452.833 416.843 451.557L416.959 448.604H421.724V454.968H422.674V458.174H421.409V456H416.248V458.174H414.983L414.99 454.968H415.564ZM417.061 454.968H420.459V449.772H418.183L418.107 451.536C418.03 453.008 417.681 454.152 417.061 454.968ZM424.16 452.233C424.16 451.509 424.301 450.857 424.584 450.278C424.871 449.7 425.268 449.253 425.773 448.938C426.284 448.624 426.865 448.467 427.517 448.467C428.524 448.467 429.337 448.815 429.957 449.513C430.581 450.21 430.894 451.137 430.894 452.295V452.384C430.894 453.104 430.755 453.751 430.477 454.325C430.203 454.895 429.809 455.339 429.294 455.658C428.784 455.977 428.196 456.137 427.53 456.137C426.528 456.137 425.714 455.788 425.09 455.091C424.47 454.394 424.16 453.471 424.16 452.322V452.233ZM425.432 452.384C425.432 453.204 425.621 453.863 425.999 454.359C426.382 454.856 426.892 455.104 427.53 455.104C428.173 455.104 428.683 454.854 429.062 454.353C429.44 453.847 429.629 453.14 429.629 452.233C429.629 451.422 429.435 450.766 429.048 450.265C428.665 449.759 428.155 449.506 427.517 449.506C426.892 449.506 426.389 449.754 426.006 450.251C425.623 450.748 425.432 451.459 425.432 452.384ZM437.678 449.649H434.267V456H432.995V448.604H437.678V449.649ZM438.727 452.233C438.727 451.509 438.868 450.857 439.151 450.278C439.438 449.7 439.834 449.253 440.34 448.938C440.85 448.624 441.431 448.467 442.083 448.467C443.09 448.467 443.904 448.815 444.524 449.513C445.148 450.21 445.46 451.137 445.46 452.295V452.384C445.46 453.104 445.321 453.751 445.043 454.325C444.77 454.895 444.376 455.339 443.861 455.658C443.35 455.977 442.762 456.137 442.097 456.137C441.094 456.137 440.281 455.788 439.656 455.091C439.037 454.394 438.727 453.471 438.727 452.322V452.233ZM439.998 452.384C439.998 453.204 440.187 453.863 440.566 454.359C440.948 454.856 441.459 455.104 442.097 455.104C442.739 455.104 443.25 454.854 443.628 454.353C444.006 453.847 444.195 453.14 444.195 452.233C444.195 451.422 444.002 450.766 443.614 450.265C443.232 449.759 442.721 449.506 442.083 449.506C441.459 449.506 440.955 449.754 440.572 450.251C440.19 450.748 439.998 451.459 439.998 452.384ZM447.582 456V448.604H450.467C451.451 448.604 452.206 448.777 452.73 449.123C453.258 449.465 453.523 449.968 453.523 450.634C453.523 450.976 453.42 451.285 453.215 451.563C453.01 451.837 452.707 452.047 452.306 452.192C452.753 452.297 453.11 452.502 453.379 452.808C453.653 453.113 453.789 453.478 453.789 453.901C453.789 454.58 453.539 455.1 453.037 455.46C452.541 455.82 451.837 456 450.925 456H447.582ZM448.847 452.753V454.981H450.939C451.467 454.981 451.862 454.883 452.121 454.688C452.386 454.492 452.518 454.216 452.518 453.86C452.518 453.122 451.976 452.753 450.891 452.753H448.847ZM448.847 451.741H450.481C451.666 451.741 452.258 451.395 452.258 450.702C452.258 450.009 451.698 449.652 450.576 449.629H448.847V451.741ZM455.549 452.233C455.549 451.509 455.69 450.857 455.973 450.278C456.26 449.7 456.657 449.253 457.162 448.938C457.673 448.624 458.254 448.467 458.906 448.467C459.913 448.467 460.726 448.815 461.346 449.513C461.97 450.21 462.283 451.137 462.283 452.295V452.384C462.283 453.104 462.144 453.751 461.866 454.325C461.592 454.895 461.198 455.339 460.683 455.658C460.173 455.977 459.585 456.137 458.919 456.137C457.917 456.137 457.103 455.788 456.479 455.091C455.859 454.394 455.549 453.471 455.549 452.322V452.233ZM456.821 452.384C456.821 453.204 457.01 453.863 457.388 454.359C457.771 454.856 458.281 455.104 458.919 455.104C459.562 455.104 460.072 454.854 460.451 454.353C460.829 453.847 461.018 453.14 461.018 452.233C461.018 451.422 460.824 450.766 460.437 450.265C460.054 449.759 459.544 449.506 458.906 449.506C458.281 449.506 457.778 449.754 457.395 450.251C457.012 450.748 456.821 451.459 456.821 452.384ZM470.537 452.384C470.537 453.509 470.279 454.416 469.764 455.104C469.249 455.793 468.552 456.137 467.672 456.137C466.775 456.137 466.068 455.852 465.553 455.282V458.844H464.289V448.604H465.444L465.505 449.424C466.02 448.786 466.736 448.467 467.652 448.467C468.54 448.467 469.242 448.802 469.757 449.472C470.277 450.142 470.537 451.074 470.537 452.268V452.384ZM469.272 452.24C469.272 451.406 469.094 450.748 468.739 450.265C468.383 449.782 467.896 449.54 467.276 449.54C466.51 449.54 465.936 449.88 465.553 450.559V454.093C465.931 454.767 466.51 455.104 467.289 455.104C467.896 455.104 468.376 454.865 468.732 454.387C469.092 453.904 469.272 453.188 469.272 452.24ZM477.136 456C477.063 455.854 477.004 455.594 476.958 455.221C476.371 455.831 475.669 456.137 474.853 456.137C474.124 456.137 473.525 455.932 473.055 455.521C472.59 455.107 472.358 454.583 472.358 453.949C472.358 453.179 472.65 452.582 473.233 452.158C473.821 451.73 474.646 451.516 475.708 451.516H476.938V450.935C476.938 450.493 476.806 450.142 476.542 449.882C476.277 449.618 475.888 449.485 475.373 449.485C474.921 449.485 474.543 449.599 474.238 449.827C473.932 450.055 473.78 450.331 473.78 450.654H472.508C472.508 450.285 472.638 449.93 472.898 449.588C473.162 449.242 473.518 448.968 473.964 448.768C474.416 448.567 474.91 448.467 475.448 448.467C476.3 448.467 476.968 448.681 477.451 449.109C477.934 449.533 478.184 450.119 478.203 450.866V454.271C478.203 454.95 478.289 455.49 478.462 455.891V456H477.136ZM475.038 455.036C475.434 455.036 475.81 454.934 476.166 454.729C476.521 454.523 476.778 454.257 476.938 453.929V452.411H475.947C474.397 452.411 473.623 452.865 473.623 453.771C473.623 454.168 473.755 454.478 474.019 454.701C474.283 454.924 474.623 455.036 475.038 455.036Z" fill="#2196F3"/>
<path d="M352.328 457.367H479.228V458.051H352.328V457.367Z" fill="#2196F3"/>
<g filter="url(#filter2_d)">
<rect x="167" y="493" width="200" height="50" rx="4" fill="#2196F3"/>
</g>
<path d="M233.465 517.57C233.465 518.69 233.267 519.672 232.871 520.516C232.475 521.359 231.907 522.01 231.168 522.469C230.433 522.927 229.59 523.156 228.637 523.156C227.694 523.156 226.853 522.93 226.113 522.477C225.374 522.023 224.801 521.378 224.394 520.539C223.988 519.695 223.782 518.727 223.777 517.633V517.07C223.777 515.951 223.978 514.966 224.379 514.117C224.785 513.263 225.355 512.609 226.09 512.156C226.829 511.698 227.673 511.469 228.621 511.469C229.569 511.469 230.41 511.698 231.144 512.156C231.884 512.609 232.454 513.263 232.855 514.117C233.262 514.966 233.465 515.948 233.465 517.062V517.57ZM231.09 517.055C231.09 515.862 230.876 514.956 230.449 514.336C230.022 513.716 229.413 513.406 228.621 513.406C227.834 513.406 227.228 513.714 226.801 514.328C226.374 514.938 226.157 515.833 226.152 517.016V517.57C226.152 518.732 226.366 519.633 226.793 520.273C227.22 520.914 227.834 521.234 228.637 521.234C229.423 521.234 230.027 520.927 230.449 520.312C230.871 519.693 231.084 518.792 231.09 517.609V517.055ZM242.995 516.359H240.284V523H238.018V516.359H235.354V514.547H242.995V516.359ZM252.447 523H250.182V516.375H247.353V523H245.096V514.547H252.447V523ZM262.743 518.852C262.743 520.154 262.446 521.198 261.852 521.984C261.264 522.766 260.467 523.156 259.462 523.156C258.608 523.156 257.918 522.859 257.392 522.266V526.25H255.134V514.547H257.227L257.306 515.375C257.852 514.719 258.566 514.391 259.446 514.391C260.488 514.391 261.298 514.776 261.876 515.547C262.454 516.318 262.743 517.38 262.743 518.734V518.852ZM260.485 518.688C260.485 517.901 260.345 517.294 260.063 516.867C259.787 516.44 259.384 516.227 258.852 516.227C258.144 516.227 257.657 516.497 257.392 517.039V520.5C257.668 521.057 258.16 521.336 258.868 521.336C259.946 521.336 260.485 520.453 260.485 518.688ZM270.008 523C269.904 522.797 269.828 522.544 269.781 522.242C269.234 522.852 268.523 523.156 267.648 523.156C266.82 523.156 266.133 522.917 265.586 522.438C265.044 521.958 264.773 521.354 264.773 520.625C264.773 519.729 265.104 519.042 265.766 518.562C266.432 518.083 267.393 517.841 268.648 517.836H269.688V517.352C269.688 516.961 269.586 516.648 269.383 516.414C269.185 516.18 268.87 516.062 268.438 516.062C268.057 516.062 267.758 516.154 267.539 516.336C267.326 516.518 267.219 516.768 267.219 517.086H264.961C264.961 516.596 265.112 516.143 265.414 515.727C265.716 515.31 266.143 514.984 266.695 514.75C267.247 514.51 267.867 514.391 268.555 514.391C269.596 514.391 270.422 514.654 271.031 515.18C271.646 515.701 271.953 516.435 271.953 517.383V521.047C271.958 521.849 272.07 522.456 272.289 522.867V523H270.008ZM268.141 521.43C268.474 521.43 268.781 521.357 269.062 521.211C269.344 521.06 269.552 520.859 269.688 520.609V519.156H268.844C267.714 519.156 267.112 519.547 267.039 520.328L267.031 520.461C267.031 520.742 267.13 520.974 267.328 521.156C267.526 521.339 267.797 521.43 268.141 521.43ZM274.796 523V514.547H278.327C279.478 514.547 280.361 514.75 280.976 515.156C281.59 515.562 281.897 516.146 281.897 516.906C281.897 517.297 281.767 517.648 281.507 517.961C281.252 518.268 280.877 518.505 280.382 518.672C280.986 518.786 281.46 519.013 281.804 519.352C282.153 519.685 282.327 520.096 282.327 520.586C282.327 521.372 282.03 521.971 281.437 522.383C280.848 522.794 279.991 523 278.866 523H274.796ZM277.054 519.492V521.195H278.874C279.671 521.195 280.069 520.917 280.069 520.359C280.069 519.792 279.689 519.503 278.929 519.492H277.054ZM277.054 517.977H278.452C279.244 517.966 279.64 517.711 279.64 517.211C279.64 516.904 279.53 516.685 279.312 516.555C279.098 516.424 278.77 516.359 278.327 516.359H277.054V517.977ZM289.764 514.547H292.022V523H289.764V517.781L286.936 523H284.67V514.547H286.936V519.758L289.764 514.547ZM301.724 516.359H299.013V523H296.747V516.359H294.083V514.547H301.724V516.359ZM306.238 517.023H307.856C308.585 517.023 309.225 517.146 309.777 517.391C310.33 517.635 310.751 517.987 311.043 518.445C311.34 518.898 311.488 519.427 311.488 520.031C311.488 520.922 311.158 521.641 310.496 522.188C309.84 522.729 308.944 523 307.809 523H303.973V514.547H306.238V517.023ZM306.238 518.836V521.195H307.84C308.288 521.195 308.632 521.091 308.871 520.883C309.111 520.674 309.231 520.391 309.231 520.031C309.231 519.667 309.113 519.378 308.879 519.164C308.645 518.945 308.298 518.836 307.84 518.836H306.238Z" fill="white"/>
<defs>
<filter id="filter0_ddd" x="0" y="0" width="534" height="587" filterUnits="userSpaceOnUse" color-interpolation-filters="sRGB">
<feFlood flood-opacity="0" result="BackgroundImageFix"/>
<feColorMatrix in="SourceAlpha" type="matrix" values="0 0 0 0 0 0 0 0 0 0 0 0 0 0 0 0 0 0 127 0"/>
<feOffset dy="2"/>
<feGaussianBlur stdDeviation="0.5"/>
<feColorMatrix type="matrix" values="0 0 0 0 0 0 0 0 0 0 0 0 0 0 0 0 0 0 0.2 0"/>
<feBlend mode="normal" in2="BackgroundImageFix" result="effect1_dropShadow"/>
<feColorMatrix in="SourceAlpha" type="matrix" values="0 0 0 0 0 0 0 0 0 0 0 0 0 0 0 0 0 0 127 0"/>
<feOffset dy="1"/>
<feGaussianBlur stdDeviation="0.5"/>
<feColorMatrix type="matrix" values="0 0 0 0 0 0 0 0 0 0 0 0 0 0 0 0 0 0 0.14 0"/>
<feBlend mode="normal" in2="effect1_dropShadow" result="effect2_dropShadow"/>
<feColorMatrix in="SourceAlpha" type="matrix" values="0 0 0 0 0 0 0 0 0 0 0 0 0 0 0 0 0 0 127 0"/>
<feOffset dy="1"/>
<feGaussianBlur stdDeviation="1.5"/>
<feColorMatrix type="matrix" values="0 0 0 0 0 0 0 0 0 0 0 0 0 0 0 0 0 0 0.12 0"/>
<feBlend mode="normal" in2="effect2_dropShadow" result="effect3_dropShadow"/>
<feBlend mode="normal" in="SourceGraphic" in2="effect3_dropShadow" result="shape"/>
</filter>
<filter id="filter1_d" x="39" y="79.4688" width="456" height="347.531" filterUnits="userSpaceOnUse" color-interpolation-filters="sRGB">
<feFlood flood-opacity="0" result="BackgroundImageFix"/>
<feColorMatrix in="SourceAlpha" type="matrix" values="0 0 0 0 0 0 0 0 0 0 0 0 0 0 0 0 0 0 127 0"/>
<feOffset dy="4"/>
<feGaussianBlur stdDeviation="2"/>
<feColorMatrix type="matrix" values="0 0 0 0 0 0 0 0 0 0 0 0 0 0 0 0 0 0 0.25 0"/>
<feBlend mode="normal" in2="BackgroundImageFix" result="effect1_dropShadow"/>
<feBlend mode="normal" in="SourceGraphic" in2="effect1_dropShadow" result="shape"/>
</filter>
<filter id="filter2_d" x="163" y="493" width="208" height="58" filterUnits="userSpaceOnUse" color-interpolation-filters="sRGB">
<feFlood flood-opacity="0" result="BackgroundImageFix"/>
<feColorMatrix in="SourceAlpha" type="matrix" values="0 0 0 0 0 0 0 0 0 0 0 0 0 0 0 0 0 0 127 0"/>
<feOffset dy="4"/>
<feGaussianBlur stdDeviation="2"/>
<feColorMatrix type="matrix" values="0 0 0 0 0 0 0 0 0 0 0 0 0 0 0 0 0 0 0.15 0"/>
<feBlend mode="normal" in2="BackgroundImageFix" result="effect1_dropShadow"/>
<feBlend mode="normal" in="SourceGraphic" in2="effect1_dropShadow" result="shape"/>
</filter>
</defs>
</svg>
