<svg width="534" height="587" viewBox="0 0 534 587" fill="none" xmlns="http://www.w3.org/2000/svg">
<g filter="url(#filter0_ddd)">
<path d="M3 6.00001C3 3.79087 4.79086 2 7 2H527C529.209 2 531 3.79086 531 6V579C531 581.209 529.209 583 527 583H7C4.79086 583 3 581.209 3 579V6.00001Z" fill="white"/>
</g>
<path d="M60.5453 53.2129C60.5453 54.6126 60.2979 55.8398 59.8031 56.8945C59.3083 57.9492 58.5987 58.763 57.6742 59.3359C56.7563 59.9089 55.7016 60.1953 54.5102 60.1953C53.3318 60.1953 52.2803 59.9121 51.3559 59.3457C50.4314 58.7793 49.7152 57.972 49.2074 56.9238C48.6996 55.8691 48.4425 54.6582 48.4359 53.291V52.5879C48.4359 51.1882 48.6866 49.9577 49.1879 48.8965C49.6957 47.8288 50.4086 47.0117 51.3266 46.4453C52.251 45.8724 53.3057 45.5859 54.4906 45.5859C55.6755 45.5859 56.727 45.8724 57.6449 46.4453C58.5694 47.0117 59.2823 47.8288 59.7836 48.8965C60.2914 49.9577 60.5453 51.1849 60.5453 52.5781V53.2129ZM57.5766 52.5684C57.5766 51.0775 57.3096 49.9447 56.7758 49.1699C56.2419 48.3952 55.4802 48.0078 54.4906 48.0078C53.5076 48.0078 52.7491 48.3919 52.2152 49.1602C51.6814 49.9219 51.4112 51.0417 51.4047 52.5195V53.2129C51.4047 54.6647 51.6716 55.791 52.2055 56.5918C52.7393 57.3926 53.5076 57.793 54.5102 57.793C55.4932 57.793 56.2484 57.4089 56.7758 56.6406C57.3031 55.8659 57.5701 54.7396 57.5766 53.2617V52.5684ZM67.4832 57.9199C68.004 57.9199 68.4272 57.7767 68.7527 57.4902C69.0783 57.2038 69.2475 56.8229 69.2606 56.3477H71.907C71.9005 57.0638 71.7052 57.7214 71.3211 58.3203C70.937 58.9128 70.4096 59.375 69.7391 59.707C69.075 60.0326 68.3393 60.1953 67.532 60.1953C66.0216 60.1953 64.8302 59.7168 63.9578 58.7598C63.0854 57.7962 62.6492 56.4681 62.6492 54.7754V54.5898C62.6492 52.9622 63.0822 51.6634 63.9481 50.6934C64.8139 49.7233 66.0021 49.2383 67.5125 49.2383C68.8341 49.2383 69.8921 49.6159 70.6863 50.3711C71.4871 51.1198 71.894 52.1191 71.907 53.3691H69.2606C69.2475 52.8223 69.0783 52.3796 68.7527 52.041C68.4272 51.696 67.9975 51.5234 67.4637 51.5234C66.8061 51.5234 66.3081 51.7643 65.9695 52.2461C65.6375 52.7214 65.4715 53.4961 65.4715 54.5703V54.8633C65.4715 55.9505 65.6375 56.7318 65.9695 57.207C66.3016 57.6823 66.8061 57.9199 67.4832 57.9199ZM82.8879 51.6992H79.4992V60H76.6672V51.6992H73.3371V49.4336H82.8879V51.6992ZM90.8805 60C90.7503 59.7461 90.6559 59.4303 90.5973 59.0527C89.9137 59.8145 89.025 60.1953 87.9313 60.1953C86.8961 60.1953 86.0367 59.8958 85.3531 59.2969C84.676 58.6979 84.3375 57.9427 84.3375 57.0312C84.3375 55.9115 84.7509 55.0521 85.5777 54.4531C86.4111 53.8542 87.6122 53.5514 89.1813 53.5449H90.4801V52.9395C90.4801 52.4512 90.3531 52.0605 90.0992 51.7676C89.8518 51.4746 89.4579 51.3281 88.9176 51.3281C88.4423 51.3281 88.068 51.4421 87.7945 51.6699C87.5276 51.8978 87.3941 52.2103 87.3941 52.6074H84.5719C84.5719 51.9954 84.7607 51.429 85.1383 50.9082C85.5159 50.3874 86.0497 49.9805 86.7398 49.6875C87.43 49.388 88.2047 49.2383 89.0641 49.2383C90.3662 49.2383 91.3981 49.5671 92.1598 50.2246C92.928 50.8757 93.3121 51.7936 93.3121 52.9785V57.5586C93.3186 58.5612 93.4586 59.3197 93.732 59.834V60H90.8805ZM88.5465 58.0371C88.9632 58.0371 89.3473 57.946 89.6988 57.7637C90.0504 57.5749 90.3108 57.3242 90.4801 57.0117V55.1953H89.4254C88.0126 55.1953 87.2607 55.6836 87.1695 56.6602L87.1598 56.8262C87.1598 57.1777 87.2835 57.4674 87.5309 57.6953C87.7783 57.9232 88.1168 58.0371 88.5465 58.0371ZM96.2656 60V49.4336H100.68C102.118 49.4336 103.222 49.6875 103.99 50.1953C104.758 50.7031 105.143 51.4323 105.143 52.3828C105.143 52.8711 104.98 53.3105 104.654 53.7012C104.335 54.0853 103.867 54.3815 103.248 54.5898C104.003 54.7331 104.596 55.0163 105.025 55.4395C105.462 55.8561 105.68 56.3704 105.68 56.9824C105.68 57.9655 105.309 58.7142 104.566 59.2285C103.831 59.7428 102.76 60 101.354 60H96.2656ZM99.0879 55.6152V57.7441H101.363C102.359 57.7441 102.857 57.3958 102.857 56.6992C102.857 55.9896 102.382 55.6283 101.432 55.6152H99.0879ZM99.0879 53.7207H100.836C101.826 53.7077 102.32 53.3887 102.32 52.7637C102.32 52.3796 102.184 52.1061 101.91 51.9434C101.643 51.7806 101.233 51.6992 100.68 51.6992H99.0879V53.7207ZM110.909 52.5293H112.93C113.842 52.5293 114.642 52.6823 115.332 52.9883C116.023 53.2943 116.55 53.7337 116.914 54.3066C117.286 54.873 117.471 55.5339 117.471 56.2891C117.471 57.4023 117.058 58.3008 116.231 58.9844C115.411 59.6615 114.291 60 112.871 60H108.077V49.4336H110.909V52.5293ZM110.909 54.7949V57.7441H112.911C113.47 57.7441 113.9 57.6139 114.2 57.3535C114.499 57.0931 114.649 56.7383 114.649 56.2891C114.649 55.8333 114.502 55.472 114.209 55.2051C113.916 54.9316 113.483 54.7949 112.911 54.7949H110.909ZM126.968 51.6992H123.579V60H120.747V51.6992H117.417V49.4336H126.968V51.6992ZM133.232 60.1953C131.682 60.1953 130.419 59.7201 129.443 58.7695C128.473 57.819 127.988 56.5527 127.988 54.9707V54.6973C127.988 53.6361 128.193 52.6888 128.603 51.8555C129.013 51.0156 129.592 50.3711 130.341 49.9219C131.096 49.4661 131.956 49.2383 132.919 49.2383C134.364 49.2383 135.501 49.694 136.327 50.6055C137.161 51.5169 137.577 52.8092 137.577 54.4824V55.6348H130.849C130.94 56.3249 131.213 56.8783 131.669 57.2949C132.131 57.7116 132.714 57.9199 133.417 57.9199C134.504 57.9199 135.354 57.526 135.966 56.7383L137.353 58.291C136.93 58.89 136.357 59.3587 135.634 59.6973C134.911 60.0293 134.111 60.1953 133.232 60.1953ZM132.909 51.5234C132.349 51.5234 131.894 51.7122 131.542 52.0898C131.197 52.4674 130.976 53.0078 130.878 53.7109H134.804V53.4863C134.791 52.8613 134.622 52.3796 134.296 52.041C133.971 51.696 133.508 51.5234 132.909 51.5234ZM149.764 57.9199C150.285 57.9199 150.708 57.7767 151.033 57.4902C151.359 57.2038 151.528 56.8229 151.541 56.3477H154.188C154.181 57.0638 153.986 57.7214 153.602 58.3203C153.217 58.9128 152.69 59.375 152.02 59.707C151.355 60.0326 150.62 60.1953 149.813 60.1953C148.302 60.1953 147.111 59.7168 146.238 58.7598C145.366 57.7962 144.93 56.4681 144.93 54.7754V54.5898C144.93 52.9622 145.363 51.6634 146.229 50.6934C147.094 49.7233 148.283 49.2383 149.793 49.2383C151.115 49.2383 152.173 49.6159 152.967 50.3711C153.768 51.1198 154.174 52.1191 154.188 53.3691H151.541C151.528 52.8223 151.359 52.3796 151.033 52.041C150.708 51.696 150.278 51.5234 149.744 51.5234C149.087 51.5234 148.589 51.7643 148.25 52.2461C147.918 52.7214 147.752 53.4961 147.752 54.5703V54.8633C147.752 55.9505 147.918 56.7318 148.25 57.207C148.582 57.6823 149.087 57.9199 149.764 57.9199ZM156.584 60V49.4336H160.998C162.437 49.4336 163.541 49.6875 164.309 50.1953C165.077 50.7031 165.461 51.4323 165.461 52.3828C165.461 52.8711 165.299 53.3105 164.973 53.7012C164.654 54.0853 164.185 54.3815 163.567 54.5898C164.322 54.7331 164.914 55.0163 165.344 55.4395C165.78 55.8561 165.998 56.3704 165.998 56.9824C165.998 57.9655 165.627 58.7142 164.885 59.2285C164.149 59.7428 163.079 60 161.672 60H156.584ZM159.407 55.6152V57.7441H161.682C162.678 57.7441 163.176 57.3958 163.176 56.6992C163.176 55.9896 162.701 55.6283 161.75 55.6152H159.407ZM159.407 53.7207H161.155C162.144 53.7077 162.639 53.3887 162.639 52.7637C162.639 52.3796 162.502 52.1061 162.229 51.9434C161.962 51.7806 161.552 51.6992 160.998 51.6992H159.407V53.7207ZM167.888 54.6191C167.888 53.571 168.089 52.6367 168.493 51.8164C168.897 50.9961 169.476 50.3613 170.231 49.9121C170.993 49.4629 171.875 49.2383 172.878 49.2383C174.304 49.2383 175.466 49.6745 176.364 50.5469C177.269 51.4193 177.774 52.6042 177.878 54.1016L177.897 54.8242C177.897 56.4453 177.445 57.7474 176.54 58.7305C175.635 59.707 174.421 60.1953 172.897 60.1953C171.374 60.1953 170.156 59.707 169.245 58.7305C168.34 57.7539 167.888 56.4258 167.888 54.7461V54.6191ZM170.71 54.8242C170.71 55.8268 170.899 56.5951 171.276 57.1289C171.654 57.6562 172.194 57.9199 172.897 57.9199C173.581 57.9199 174.115 57.6595 174.499 57.1387C174.883 56.6113 175.075 55.7715 175.075 54.6191C175.075 53.6361 174.883 52.8743 174.499 52.334C174.115 51.7936 173.574 51.5234 172.878 51.5234C172.188 51.5234 171.654 51.7936 171.276 52.334C170.899 52.8678 170.71 53.6979 170.71 54.8242ZM186.603 49.4336H189.425V60H186.603V53.4766L183.068 60H180.236V49.4336H183.068V55.9473L186.603 49.4336ZM197.91 57.7246C198.548 57.0475 198.981 56.377 199.209 55.7129C199.437 55.0488 199.564 54.1081 199.59 52.8906L199.668 49.4336H207.441V57.7246H208.965V63.1738H206.143V60H199.883V63.1738H197.002V57.7246H197.91ZM201.24 57.7246H204.629V51.7676H202.432L202.412 53.0371C202.354 54.9772 201.963 56.5397 201.24 57.7246ZM217.123 60C216.993 59.7461 216.899 59.4303 216.84 59.0527C216.157 59.8145 215.268 60.1953 214.174 60.1953C213.139 60.1953 212.28 59.8958 211.596 59.2969C210.919 58.6979 210.58 57.9427 210.58 57.0312C210.58 55.9115 210.994 55.0521 211.821 54.4531C212.654 53.8542 213.855 53.5514 215.424 53.5449H216.723V52.9395C216.723 52.4512 216.596 52.0605 216.342 51.7676C216.095 51.4746 215.701 51.3281 215.161 51.3281C214.685 51.3281 214.311 51.4421 214.038 51.6699C213.771 51.8978 213.637 52.2103 213.637 52.6074H210.815C210.815 51.9954 211.004 51.429 211.381 50.9082C211.759 50.3874 212.293 49.9805 212.983 49.6875C213.673 49.388 214.448 49.2383 215.307 49.2383C216.609 49.2383 217.641 49.5671 218.403 50.2246C219.171 50.8757 219.555 51.7936 219.555 52.9785V57.5586C219.562 58.5612 219.702 59.3197 219.975 59.834V60H217.123ZM214.789 58.0371C215.206 58.0371 215.59 57.946 215.942 57.7637C216.293 57.5749 216.554 57.3242 216.723 57.0117V55.1953H215.668C214.256 55.1953 213.504 55.6836 213.413 56.6602L213.403 56.8262C213.403 57.1777 213.526 57.4674 213.774 57.6953C214.021 57.9232 214.36 58.0371 214.789 58.0371ZM231.483 60H228.651V55.9375H225.145V60H222.323V49.4336H225.145V53.6719H228.651V49.4336H231.483V60ZM243.431 60H240.599V55.9375H237.093V60H234.271V49.4336H237.093V53.6719H240.599V49.4336H243.431V60ZM249.236 52.5293H251.257C252.169 52.5293 252.97 52.6823 253.66 52.9883C254.35 53.2943 254.877 53.7337 255.242 54.3066C255.613 54.873 255.798 55.5339 255.798 56.2891C255.798 57.4023 255.385 58.3008 254.558 58.9844C253.738 59.6615 252.618 60 251.199 60H246.404V49.4336H249.236V52.5293ZM260.291 60H257.468V49.4336H260.291V60ZM249.236 54.7949V57.7441H251.238C251.798 57.7441 252.227 57.6139 252.527 57.3535C252.826 57.0931 252.976 56.7383 252.976 56.2891C252.976 55.8333 252.83 55.472 252.537 55.2051C252.244 54.9316 251.811 54.7949 251.238 54.7949H249.236ZM268.244 60.1953C266.695 60.1953 265.432 59.7201 264.455 58.7695C263.485 57.819 263 56.5527 263 54.9707V54.6973C263 53.6361 263.205 52.6888 263.615 51.8555C264.025 51.0156 264.605 50.3711 265.354 49.9219C266.109 49.4661 266.968 49.2383 267.932 49.2383C269.377 49.2383 270.513 49.694 271.34 50.6055C272.173 51.5169 272.59 52.8092 272.59 54.4824V55.6348H265.861C265.952 56.3249 266.226 56.8783 266.682 57.2949C267.144 57.7116 267.727 57.9199 268.43 57.9199C269.517 57.9199 270.367 57.526 270.979 56.7383L272.365 58.291C271.942 58.89 271.369 59.3587 270.646 59.6973C269.924 60.0293 269.123 60.1953 268.244 60.1953ZM267.922 51.5234C267.362 51.5234 266.906 51.7122 266.555 52.0898C266.21 52.4674 265.988 53.0078 265.891 53.7109H269.816V53.4863C269.803 52.8613 269.634 52.3796 269.309 52.041C268.983 51.696 268.521 51.5234 267.922 51.5234ZM275.534 63.5645L274.059 62.793L274.411 62.1582C274.847 61.3639 275.071 60.5729 275.084 59.7852V57.5977H277.467L277.457 59.5508C277.451 60.2734 277.269 61.0026 276.911 61.7383C276.552 62.474 276.093 63.0827 275.534 63.5645ZM292.3 56.6699L295.064 49.4336H298.599V60H295.777V53.5156L293.247 60H291.353L288.872 53.623V60H286.05V49.4336H289.556L292.3 56.6699ZM304.677 52.5293H306.699C307.61 52.5293 308.411 52.6823 309.101 52.9883C309.791 53.2943 310.319 53.7337 310.683 54.3066C311.054 54.873 311.24 55.5339 311.24 56.2891C311.24 57.4023 310.826 58.3008 310 58.9844C309.179 59.6615 308.06 60 306.64 60H301.845V49.4336H304.677V52.5293ZM315.732 60H312.91V49.4336H315.732V60ZM304.677 54.7949V57.7441H306.679C307.239 57.7441 307.669 57.6139 307.968 57.3535C308.268 57.0931 308.418 56.7383 308.418 56.2891C308.418 55.8333 308.271 55.472 307.978 55.2051C307.685 54.9316 307.252 54.7949 306.679 54.7949H304.677ZM324.588 60V49.4336H329.002C330.441 49.4336 331.545 49.6875 332.313 50.1953C333.081 50.7031 333.465 51.4323 333.465 52.3828C333.465 52.8711 333.302 53.3105 332.977 53.7012C332.658 54.0853 332.189 54.3815 331.571 54.5898C332.326 54.7331 332.918 55.0163 333.348 55.4395C333.784 55.8561 334.002 56.3704 334.002 56.9824C334.002 57.9655 333.631 58.7142 332.889 59.2285C332.153 59.7428 331.082 60 329.676 60H324.588ZM327.411 55.6152V57.7441H329.686C330.682 57.7441 331.18 57.3958 331.18 56.6992C331.18 55.9896 330.705 55.6283 329.754 55.6152H327.411ZM327.411 53.7207H329.159C330.148 53.7077 330.643 53.3887 330.643 52.7637C330.643 52.3796 330.506 52.1061 330.233 51.9434C329.966 51.7806 329.556 51.6992 329.002 51.6992H327.411V53.7207ZM342.454 60C342.324 59.7461 342.229 59.4303 342.171 59.0527C341.487 59.8145 340.598 60.1953 339.505 60.1953C338.47 60.1953 337.61 59.8958 336.927 59.2969C336.249 58.6979 335.911 57.9427 335.911 57.0312C335.911 55.9115 336.324 55.0521 337.151 54.4531C337.985 53.8542 339.186 53.5514 340.755 53.5449H342.054V52.9395C342.054 52.4512 341.927 52.0605 341.673 51.7676C341.425 51.4746 341.031 51.3281 340.491 51.3281C340.016 51.3281 339.641 51.4421 339.368 51.6699C339.101 51.8978 338.968 52.2103 338.968 52.6074H336.145C336.145 51.9954 336.334 51.429 336.712 50.9082C337.089 50.3874 337.623 49.9805 338.313 49.6875C339.003 49.388 339.778 49.2383 340.638 49.2383C341.94 49.2383 342.971 49.5671 343.733 50.2246C344.501 50.8757 344.886 51.7936 344.886 52.9785V57.5586C344.892 58.5612 345.032 59.3197 345.305 59.834V60H342.454ZM340.12 58.0371C340.537 58.0371 340.921 57.946 341.272 57.7637C341.624 57.5749 341.884 57.3242 342.054 57.0117V55.1953H340.999C339.586 55.1953 338.834 55.6836 338.743 56.6602L338.733 56.8262C338.733 57.1777 338.857 57.4674 339.104 57.6953C339.352 57.9232 339.69 58.0371 340.12 58.0371ZM354.089 56.6699L356.853 49.4336H360.388V60H357.566V53.5156L355.036 60H353.142L350.661 53.623V60H347.839V49.4336H351.345L354.089 56.6699ZM378.219 60H375.387V51.7188H371.852V60H369.029V49.4336H378.219V60ZM385.84 60.1953C384.291 60.1953 383.028 59.7201 382.051 58.7695C381.081 57.819 380.596 56.5527 380.596 54.9707V54.6973C380.596 53.6361 380.801 52.6888 381.211 51.8555C381.621 51.0156 382.201 50.3711 382.95 49.9219C383.705 49.4661 384.564 49.2383 385.528 49.2383C386.973 49.2383 388.109 49.694 388.936 50.6055C389.769 51.5169 390.186 52.8092 390.186 54.4824V55.6348H383.457C383.549 56.3249 383.822 56.8783 384.278 57.2949C384.74 57.7116 385.323 57.9199 386.026 57.9199C387.113 57.9199 387.963 57.526 388.575 56.7383L389.961 58.291C389.538 58.89 388.965 59.3587 388.243 59.6973C387.52 60.0293 386.719 60.1953 385.84 60.1953ZM385.518 51.5234C384.958 51.5234 384.502 51.7122 384.151 52.0898C383.806 52.4674 383.584 53.0078 383.487 53.7109H387.413V53.4863C387.399 52.8613 387.23 52.3796 386.905 52.041C386.579 51.696 386.117 51.5234 385.518 51.5234ZM401.909 54.8145C401.909 56.4421 401.538 57.7474 400.796 58.7305C400.06 59.707 399.064 60.1953 397.807 60.1953C396.74 60.1953 395.877 59.8242 395.22 59.082V64.0625H392.397V49.4336H395.014L395.112 50.4688C395.796 49.6484 396.688 49.2383 397.788 49.2383C399.09 49.2383 400.102 49.7201 400.825 50.6836C401.548 51.6471 401.909 52.9753 401.909 54.668V54.8145ZM399.087 54.6094C399.087 53.6263 398.911 52.8678 398.559 52.334C398.214 51.8001 397.71 51.5332 397.046 51.5332C396.16 51.5332 395.552 51.8717 395.22 52.5488V56.875C395.565 57.5716 396.18 57.9199 397.065 57.9199C398.413 57.9199 399.087 56.8164 399.087 54.6094ZM409.13 60.1953C407.581 60.1953 406.318 59.7201 405.341 58.7695C404.371 57.819 403.886 56.5527 403.886 54.9707V54.6973C403.886 53.6361 404.091 52.6888 404.501 51.8555C404.911 51.0156 405.491 50.3711 406.239 49.9219C406.995 49.4661 407.854 49.2383 408.818 49.2383C410.263 49.2383 411.399 49.694 412.226 50.6055C413.059 51.5169 413.476 52.8092 413.476 54.4824V55.6348H406.747C406.838 56.3249 407.112 56.8783 407.568 57.2949C408.03 57.7116 408.613 57.9199 409.316 57.9199C410.403 57.9199 411.252 57.526 411.864 56.7383L413.251 58.291C412.828 58.89 412.255 59.3587 411.532 59.6973C410.81 60.0293 410.009 60.1953 409.13 60.1953ZM408.808 51.5234C408.248 51.5234 407.792 51.7122 407.441 52.0898C407.096 52.4674 406.874 53.0078 406.777 53.7109H410.702V53.4863C410.689 52.8613 410.52 52.3796 410.195 52.041C409.869 51.696 409.407 51.5234 408.808 51.5234ZM421.234 52.5488C421.234 52.1777 421.11 51.8913 420.863 51.6895C420.622 51.4811 420.277 51.377 419.828 51.377C419.365 51.377 418.988 51.4746 418.695 51.6699C418.408 51.8587 418.265 52.1289 418.265 52.4805H415.443C415.443 51.5234 415.84 50.7454 416.634 50.1465C417.429 49.5475 418.444 49.248 419.681 49.248C421.042 49.248 422.11 49.515 422.884 50.0488C423.666 50.5827 424.056 51.3411 424.056 52.3242C424.056 52.793 423.913 53.2259 423.627 53.623C423.347 54.0137 422.949 54.3262 422.435 54.5605C423.64 54.9837 424.242 55.8008 424.242 57.0117C424.242 57.9818 423.825 58.7565 422.992 59.3359C422.165 59.9089 421.061 60.1953 419.681 60.1953C418.399 60.1953 417.344 59.8958 416.517 59.2969C415.69 58.6979 415.277 57.8906 415.277 56.875H418.099C418.099 57.2331 418.259 57.5228 418.578 57.7441C418.897 57.9655 419.313 58.0762 419.828 58.0762C420.329 58.0762 420.72 57.959 421 57.7246C421.28 57.4902 421.42 57.1842 421.42 56.8066C421.42 56.3444 421.286 56.0156 421.019 55.8203C420.752 55.6185 420.352 55.5176 419.818 55.5176H418.285V53.6816H419.916C420.795 53.6556 421.234 53.278 421.234 52.5488ZM426.746 60V49.4336H431.16C432.599 49.4336 433.702 49.6875 434.471 50.1953C435.239 50.7031 435.623 51.4323 435.623 52.3828C435.623 52.8711 435.46 53.3105 435.135 53.7012C434.816 54.0853 434.347 54.3815 433.729 54.5898C434.484 54.7331 435.076 55.0163 435.506 55.4395C435.942 55.8561 436.16 56.3704 436.16 56.9824C436.16 57.9655 435.789 58.7142 435.047 59.2285C434.311 59.7428 433.24 60 431.834 60H426.746ZM429.568 55.6152V57.7441H431.844C432.84 57.7441 433.338 57.3958 433.338 56.6992C433.338 55.9896 432.863 55.6283 431.912 55.6152H429.568ZM429.568 53.7207H431.316C432.306 53.7077 432.801 53.3887 432.801 52.7637C432.801 52.3796 432.664 52.1061 432.391 51.9434C432.124 51.7806 431.714 51.6992 431.16 51.6992H429.568V53.7207ZM438.049 54.6191C438.049 53.571 438.251 52.6367 438.655 51.8164C439.058 50.9961 439.638 50.3613 440.393 49.9121C441.155 49.4629 442.037 49.2383 443.039 49.2383C444.465 49.2383 445.627 49.6745 446.526 50.5469C447.431 51.4193 447.935 52.6042 448.039 54.1016L448.059 54.8242C448.059 56.4453 447.607 57.7474 446.702 58.7305C445.797 59.707 444.582 60.1953 443.059 60.1953C441.536 60.1953 440.318 59.707 439.407 58.7305C438.502 57.7539 438.049 56.4258 438.049 54.7461V54.6191ZM440.871 54.8242C440.871 55.8268 441.06 56.5951 441.438 57.1289C441.816 57.6562 442.356 57.9199 443.059 57.9199C443.743 57.9199 444.276 57.6595 444.661 57.1387C445.045 56.6113 445.237 55.7715 445.237 54.6191C445.237 53.6361 445.045 52.8743 444.661 52.334C444.276 51.7936 443.736 51.5234 443.039 51.5234C442.349 51.5234 441.816 51.7936 441.438 52.334C441.06 52.8678 440.871 53.6979 440.871 54.8242ZM459.557 60H456.725V55.9375H453.22V60H450.397V49.4336H453.22V53.6719H456.725V49.4336H459.557V60ZM468.712 49.4336H471.534V60H468.712V53.4766L465.177 60H462.345V49.4336H465.177V55.9473L468.712 49.4336ZM480.728 56.6699L483.492 49.4336H487.027V60H484.205V53.5156L481.675 60H479.781L477.3 53.623V60H474.478V49.4336H477.984L480.728 56.6699Z" fill="#212121"/>
<rect x="44.5" y="95.5" width="447" height="39" rx="3.5" stroke="#2196F3"/>
<path d="M50.3691 79.4688H51.4941V88H50.3691V81.4258L46.168 88H45.0371V79.4688H46.168V86.043L50.3691 79.4688ZM57.1454 86.5645L59.3016 81.6602H60.6552V88H59.5712V83.3887L57.5204 88H56.7704L54.6786 83.2891V88H53.5946V81.6602H55.0009L57.1454 86.5645ZM67.367 81.6602V88H66.2771V85.5332H64.6423L63.1482 88H61.9763L63.5701 85.3691C63.1638 85.2207 62.8513 84.9922 62.6326 84.6836C62.4177 84.3711 62.3103 84.0078 62.3103 83.5938C62.3103 83.0156 62.5271 82.5508 62.9607 82.1992C63.3943 81.8438 63.9744 81.6641 64.7009 81.6602H67.367ZM63.4002 83.6055C63.4002 83.9141 63.5056 84.1641 63.7166 84.3555C63.9275 84.543 64.2068 84.6387 64.5545 84.6426H66.2771V82.5391H64.7185C64.3162 82.5391 63.9959 82.6387 63.7576 82.8379C63.5193 83.0332 63.4002 83.2891 63.4002 83.6055Z" fill="#757575"/>
<line x1="86.5" y1="107" x2="86.5" y2="123" stroke="black"/>
<path d="M65 115C66.6575 115 68 113.658 68 112C68 110.342 66.6575 109 65 109C63.3425 109 62 110.342 62 112C62 113.658 63.3425 115 65 115ZM65 116.5C62.9975 116.5 59 117.505 59 119.5V120.25C59 120.663 59.3375 121 59.75 121H70.25C70.6625 121 71 120.663 71 120.25V119.5C71 117.505 67.0025 116.5 65 116.5Z" fill="#2196F3"/>
<rect x="44.5" y="163.5" width="447" height="39" rx="3.5" stroke="#212121" stroke-opacity="0.2"/>
<path d="M50.8848 148.395H48.1426V156H47.0234V148.395H44.2871V147.469H50.8848V148.395ZM54.1454 156.117C53.286 156.117 52.5868 155.836 52.0477 155.273C51.5087 154.707 51.2391 153.951 51.2391 153.006V152.807C51.2391 152.178 51.3583 151.617 51.5966 151.125C51.8387 150.629 52.1747 150.242 52.6044 149.965C53.038 149.684 53.5067 149.543 54.0106 149.543C54.8348 149.543 55.4755 149.814 55.9325 150.357C56.3895 150.9 56.618 151.678 56.618 152.689V153.141H52.3231C52.3387 153.766 52.5204 154.271 52.868 154.658C53.2196 155.041 53.6649 155.232 54.204 155.232C54.5868 155.232 54.911 155.154 55.1766 154.998C55.4423 154.842 55.6747 154.635 55.8739 154.377L56.536 154.893C56.0048 155.709 55.2079 156.117 54.1454 156.117ZM54.0106 150.434C53.5731 150.434 53.2059 150.594 52.9091 150.914C52.6122 151.23 52.4286 151.676 52.3583 152.25H55.5341V152.168C55.5028 151.617 55.3544 151.191 55.0887 150.891C54.8231 150.586 54.4637 150.434 54.0106 150.434ZM63.1951 149.66V156H62.1052V150.557H59.949L59.8201 152.93C59.7498 154.02 59.5662 154.799 59.2693 155.268C58.9763 155.736 58.5095 155.98 57.8689 156H57.4353V155.045L57.7459 155.021C58.0974 154.982 58.3494 154.779 58.5017 154.412C58.6541 154.045 58.7517 153.365 58.7947 152.373L58.9119 149.66H63.1951ZM67.6862 156.117C66.8268 156.117 66.1276 155.836 65.5885 155.273C65.0495 154.707 64.7799 153.951 64.7799 153.006V152.807C64.7799 152.178 64.8991 151.617 65.1373 151.125C65.3795 150.629 65.7155 150.242 66.1452 149.965C66.5788 149.684 67.0475 149.543 67.5514 149.543C68.3756 149.543 69.0163 149.814 69.4733 150.357C69.9303 150.9 70.1588 151.678 70.1588 152.689V153.141H65.8639C65.8795 153.766 66.0612 154.271 66.4088 154.658C66.7604 155.041 67.2057 155.232 67.7448 155.232C68.1276 155.232 68.4518 155.154 68.7174 154.998C68.983 154.842 69.2155 154.635 69.4147 154.377L70.0768 154.893C69.5455 155.709 68.7487 156.117 67.6862 156.117ZM67.5514 150.434C67.1139 150.434 66.7467 150.594 66.4498 150.914C66.153 151.23 65.9694 151.676 65.8991 152.25H69.0748V152.168C69.0436 151.617 68.8952 151.191 68.6295 150.891C68.3639 150.586 68.0045 150.434 67.5514 150.434ZM71.3042 152.947C71.3042 151.889 71.5093 151.057 71.9195 150.451C72.3296 149.846 72.8921 149.543 73.607 149.543C73.939 149.543 74.23 149.6 74.48 149.713V147H75.564V149.748C75.8374 149.611 76.1577 149.543 76.5249 149.543C77.2437 149.543 77.8081 149.846 78.2183 150.451C78.6284 151.057 78.8335 151.93 78.8335 153.07C78.8335 154.004 78.6284 154.746 78.2183 155.297C77.812 155.848 77.2515 156.123 76.5366 156.123C76.1577 156.123 75.8335 156.061 75.564 155.936V158.438H74.48V155.953C74.2222 156.066 73.9273 156.123 73.5952 156.123C72.8843 156.123 72.3237 155.848 71.9136 155.297C71.5073 154.746 71.3042 153.992 71.3042 153.035V152.947ZM77.7495 152.947C77.7495 152.15 77.6128 151.533 77.3394 151.096C77.0659 150.654 76.689 150.434 76.2085 150.434C75.9624 150.434 75.7476 150.473 75.564 150.551V155.139C75.7398 155.205 75.9585 155.238 76.2202 155.238C76.7046 155.238 77.0796 155.051 77.3452 154.676C77.6148 154.301 77.7495 153.725 77.7495 152.947ZM72.3882 153.07C72.3882 153.781 72.5152 154.32 72.7691 154.688C73.023 155.055 73.3882 155.238 73.8648 155.238C74.0913 155.238 74.2964 155.203 74.48 155.133V150.533C74.3159 150.467 74.1148 150.434 73.8765 150.434C73.3999 150.434 73.0327 150.646 72.7749 151.072C72.5171 151.498 72.3882 152.164 72.3882 153.07ZM80.0785 152.771C80.0785 152.15 80.1996 151.592 80.4418 151.096C80.6879 150.6 81.0277 150.217 81.4613 149.947C81.8988 149.678 82.3969 149.543 82.9555 149.543C83.8187 149.543 84.516 149.842 85.0473 150.439C85.5824 151.037 85.85 151.832 85.85 152.824V152.9C85.85 153.518 85.7309 154.072 85.4926 154.564C85.2582 155.053 84.9203 155.434 84.4789 155.707C84.0414 155.98 83.5375 156.117 82.9672 156.117C82.1078 156.117 81.4105 155.818 80.8754 155.221C80.3441 154.623 80.0785 153.832 80.0785 152.848V152.771ZM81.1684 152.9C81.1684 153.604 81.3305 154.168 81.6547 154.594C81.9828 155.02 82.4203 155.232 82.9672 155.232C83.518 155.232 83.9555 155.018 84.2797 154.588C84.6039 154.154 84.766 153.549 84.766 152.771C84.766 152.076 84.6 151.514 84.268 151.084C83.9398 150.65 83.5023 150.434 82.9555 150.434C82.4203 150.434 81.9887 150.646 81.6605 151.072C81.3324 151.498 81.1684 152.107 81.1684 152.9ZM92.5091 156H91.4251V153.293H88.513V156H87.4231V149.66H88.513V152.408H91.4251V149.66H92.5091V156Z" fill="#757575"/>
<path d="M69.996 185.123L68.1579 184.913C67.7164 184.862 67.2822 185.014 66.971 185.325L65.6395 186.657C63.5914 185.615 61.9125 183.943 60.8704 181.888L62.2092 180.549C62.5204 180.238 62.6724 179.804 62.6217 179.362L62.4118 177.538C62.325 176.807 61.7099 176.257 60.9717 176.257H59.7198C58.902 176.257 58.2217 176.938 58.2724 177.756C58.656 183.936 63.5987 188.871 69.7717 189.255C70.5894 189.305 71.2697 188.625 71.2697 187.807V186.556C71.2769 185.825 70.7269 185.209 69.996 185.123Z" fill="#212121"/>
<rect x="44.5" y="231.5" width="447" height="39" rx="3.5" stroke="#212121" stroke-opacity="0.2"/>
<path d="M71 245H59C58.175 245 57.5075 245.675 57.5075 246.5L57.5 255.5C57.5 256.325 58.175 257 59 257H71C71.825 257 72.5 256.325 72.5 255.5V246.5C72.5 245.675 71.825 245 71 245ZM70.7 248.188L65.3975 251.503C65.1575 251.653 64.8425 251.653 64.6025 251.503L59.3 248.188C59.1125 248.068 59 247.865 59 247.648C59 247.145 59.5475 246.845 59.975 247.108L65 250.25L70.025 247.108C70.4525 246.845 71 247.145 71 247.648C71 247.865 70.8875 248.068 70.7 248.188Z" fill="#212121"/>
<path d="M51.5059 224H50.375V216.395H46.168V224H45.043V215.469H51.5059V224ZM53.2196 220.771C53.2196 220.15 53.3407 219.592 53.5829 219.096C53.829 218.6 54.1688 218.217 54.6024 217.947C55.0399 217.678 55.538 217.543 56.0966 217.543C56.9598 217.543 57.6571 217.842 58.1884 218.439C58.7235 219.037 58.9911 219.832 58.9911 220.824V220.9C58.9911 221.518 58.872 222.072 58.6337 222.564C58.3993 223.053 58.0614 223.434 57.62 223.707C57.1825 223.98 56.6786 224.117 56.1083 224.117C55.2489 224.117 54.5516 223.818 54.0165 223.221C53.4852 222.623 53.2196 221.832 53.2196 220.848V220.771ZM54.3095 220.9C54.3095 221.604 54.4716 222.168 54.7958 222.594C55.1239 223.02 55.5614 223.232 56.1083 223.232C56.6591 223.232 57.0966 223.018 57.4208 222.588C57.745 222.154 57.9071 221.549 57.9071 220.771C57.9071 220.076 57.7411 219.514 57.4091 219.084C57.0809 218.65 56.6434 218.434 56.0966 218.434C55.5614 218.434 55.1298 218.646 54.8016 219.072C54.4735 219.498 54.3095 220.107 54.3095 220.9ZM65.2576 224H64.1677V221.703C63.6912 221.828 63.2029 221.891 62.7029 221.891C61.9099 221.891 61.3045 221.688 60.8865 221.281C60.4724 220.875 60.2615 220.297 60.2537 219.547V217.654H61.3377V219.582C61.3572 220.527 61.8123 221 62.7029 221C63.2029 221 63.6912 220.938 64.1677 220.812V217.66H65.2576V224ZM71.8288 218.539H69.7018V224H68.6178V218.539H66.5319V217.66H71.8288V218.539ZM76.8237 224C76.7612 223.875 76.7105 223.652 76.6714 223.332C76.1675 223.855 75.5659 224.117 74.8667 224.117C74.2417 224.117 73.728 223.941 73.3257 223.59C72.9273 223.234 72.728 222.785 72.728 222.242C72.728 221.582 72.978 221.07 73.478 220.707C73.982 220.34 74.689 220.156 75.5991 220.156H76.6538V219.658C76.6538 219.279 76.5405 218.979 76.314 218.756C76.0874 218.529 75.7534 218.416 75.312 218.416C74.9253 218.416 74.6011 218.514 74.3394 218.709C74.0777 218.904 73.9468 219.141 73.9468 219.418H72.857C72.857 219.102 72.9683 218.797 73.1909 218.504C73.4175 218.207 73.7222 217.973 74.105 217.801C74.4917 217.629 74.9155 217.543 75.3765 217.543C76.107 217.543 76.6792 217.727 77.0933 218.094C77.5073 218.457 77.7222 218.959 77.7378 219.6V222.518C77.7378 223.1 77.812 223.562 77.9605 223.906V224H76.8237ZM75.0249 223.174C75.3648 223.174 75.687 223.086 75.9917 222.91C76.2964 222.734 76.5171 222.506 76.6538 222.225V220.924H75.8042C74.4761 220.924 73.812 221.312 73.812 222.09C73.812 222.43 73.9253 222.695 74.1519 222.887C74.3784 223.078 74.6695 223.174 75.0249 223.174Z" fill="#757575"/>
<rect x="44.5" y="299.5" width="447" height="119" rx="3.5" stroke="#212121" stroke-opacity="0.2"/>
<path d="M61.1553 324V314.047H64.4092C65.4893 314.047 66.3005 314.27 66.8428 314.717C67.3896 315.163 67.6631 315.824 67.6631 316.699C67.6631 317.164 67.5309 317.576 67.2666 317.937C67.0023 318.292 66.6423 318.568 66.1865 318.764C66.7243 318.914 67.1481 319.201 67.458 319.625C67.7725 320.044 67.9297 320.546 67.9297 321.129C67.9297 322.022 67.6403 322.724 67.0615 323.234C66.4827 323.745 65.6647 324 64.6074 324H61.1553ZM62.4678 319.345V322.927H64.6348C65.2454 322.927 65.7262 322.77 66.0771 322.455C66.4326 322.136 66.6104 321.699 66.6104 321.143C66.6104 319.944 65.9587 319.345 64.6553 319.345H62.4678ZM62.4678 318.292H64.4502C65.0244 318.292 65.4824 318.148 65.8242 317.861C66.1706 317.574 66.3438 317.185 66.3438 316.692C66.3438 316.146 66.1842 315.749 65.8652 315.503C65.5462 315.252 65.0609 315.127 64.4092 315.127H62.4678V318.292ZM69.9359 324V316.604H72.8207C73.805 316.604 74.5593 316.777 75.0834 317.123C75.612 317.465 75.8763 317.968 75.8763 318.634C75.8763 318.976 75.7738 319.285 75.5687 319.563C75.3636 319.837 75.0606 320.047 74.6595 320.192C75.1061 320.297 75.4639 320.502 75.7328 320.808C76.0062 321.113 76.1429 321.478 76.1429 321.901C76.1429 322.58 75.8923 323.1 75.391 323.46C74.8942 323.82 74.1901 324 73.2787 324H69.9359ZM71.2005 320.753V322.981H73.2923C73.821 322.981 74.2152 322.883 74.475 322.688C74.7393 322.492 74.8714 322.216 74.8714 321.86C74.8714 321.122 74.3291 320.753 73.2445 320.753H71.2005ZM71.2005 319.741H72.8343C74.0192 319.741 74.6117 319.395 74.6117 318.702C74.6117 318.009 74.0511 317.652 72.93 317.629H71.2005V319.741ZM81.0271 324.137C80.0245 324.137 79.2087 323.809 78.5798 323.152C77.9509 322.492 77.6364 321.61 77.6364 320.507V320.274C77.6364 319.541 77.7754 318.887 78.0534 318.312C78.336 317.734 78.7279 317.283 79.2292 316.959C79.7351 316.631 80.282 316.467 80.8698 316.467C81.8314 316.467 82.5788 316.784 83.112 317.417C83.6452 318.05 83.9118 318.957 83.9118 320.138V320.664H78.9011C78.9193 321.393 79.1312 321.983 79.5368 322.435C79.947 322.881 80.4665 323.104 81.0954 323.104C81.542 323.104 81.9203 323.013 82.2302 322.831C82.5401 322.649 82.8113 322.407 83.0437 322.106L83.8161 322.708C83.1963 323.66 82.2667 324.137 81.0271 324.137ZM80.8698 317.506C80.3594 317.506 79.931 317.693 79.5847 318.066C79.2383 318.436 79.0241 318.955 78.9421 319.625H82.6472V319.529C82.6107 318.887 82.4376 318.39 82.1277 318.039C81.8178 317.684 81.3985 317.506 80.8698 317.506ZM85.46 322.968L85.8975 322.428C86.3897 321.79 86.67 320.833 86.7384 319.557L86.8546 316.604H91.6192V322.968H92.5694V326.174H91.3048V324H86.1436V326.174H84.879L84.8858 322.968H85.46ZM86.9571 322.968H90.3546V317.772H88.0782L88.003 319.536C87.9255 321.008 87.5769 322.152 86.9571 322.968ZM98.8959 316.604H100.161V324H98.8959V318.606L95.4848 324H94.2202V316.604H95.4848V322.004L98.8959 316.604ZM107.827 317.629H105.346V324H104.081V317.629H101.647V316.604H107.827V317.629ZM111.72 324.137C110.717 324.137 109.902 323.809 109.273 323.152C108.644 322.492 108.329 321.61 108.329 320.507V320.274C108.329 319.541 108.468 318.887 108.746 318.312C109.029 317.734 109.421 317.283 109.922 316.959C110.428 316.631 110.975 316.467 111.563 316.467C112.524 316.467 113.272 316.784 113.805 317.417C114.338 318.05 114.605 318.957 114.605 320.138V320.664H109.594C109.612 321.393 109.824 321.983 110.23 322.435C110.64 322.881 111.159 323.104 111.788 323.104C112.235 323.104 112.613 323.013 112.923 322.831C113.233 322.649 113.504 322.407 113.736 322.106L114.509 322.708C113.889 323.66 112.959 324.137 111.72 324.137ZM111.563 317.506C111.052 317.506 110.624 317.693 110.278 318.066C109.931 318.436 109.717 318.955 109.635 319.625H113.34V319.529C113.304 318.887 113.13 318.39 112.82 318.039C112.511 317.684 112.091 317.506 111.563 317.506ZM125.323 317.629H122.842V324H121.577V317.629H119.143V316.604H125.323V317.629ZM129.216 324.137C128.213 324.137 127.398 323.809 126.769 323.152C126.14 322.492 125.825 321.61 125.825 320.507V320.274C125.825 319.541 125.964 318.887 126.242 318.312C126.525 317.734 126.917 317.283 127.418 316.959C127.924 316.631 128.471 316.467 129.059 316.467C130.02 316.467 130.768 316.784 131.301 317.417C131.834 318.05 132.101 318.957 132.101 320.138V320.664H127.09C127.108 321.393 127.32 321.983 127.726 322.435C128.136 322.881 128.656 323.104 129.284 323.104C129.731 323.104 130.109 323.013 130.419 322.831C130.729 322.649 131 322.407 131.233 322.106L132.005 322.708C131.385 323.66 130.456 324.137 129.216 324.137ZM129.059 317.506C128.548 317.506 128.12 317.693 127.774 318.066C127.427 318.436 127.213 318.955 127.131 319.625H130.836V319.529C130.8 318.887 130.627 318.39 130.317 318.039C130.007 317.684 129.587 317.506 129.059 317.506ZM136.014 320.849H135.091V324H133.82V316.604H135.091V319.734H135.919L138.407 316.604H139.938L137.012 320.158L140.184 324H138.578L136.014 320.849ZM144.269 323.104C144.72 323.104 145.114 322.968 145.451 322.694C145.788 322.421 145.975 322.079 146.012 321.669H147.208C147.185 322.093 147.039 322.496 146.77 322.879C146.502 323.262 146.142 323.567 145.69 323.795C145.244 324.023 144.77 324.137 144.269 324.137C143.261 324.137 142.459 323.802 141.862 323.132C141.27 322.457 140.974 321.537 140.974 320.37V320.158C140.974 319.438 141.106 318.798 141.37 318.237C141.634 317.677 142.013 317.242 142.505 316.932C143.002 316.622 143.587 316.467 144.262 316.467C145.091 316.467 145.779 316.715 146.326 317.212C146.878 317.709 147.172 318.354 147.208 319.146H146.012C145.975 318.668 145.793 318.276 145.465 317.971C145.141 317.661 144.74 317.506 144.262 317.506C143.619 317.506 143.12 317.738 142.765 318.203C142.414 318.663 142.238 319.331 142.238 320.206V320.445C142.238 321.298 142.414 321.954 142.765 322.414C143.116 322.874 143.617 323.104 144.269 323.104ZM154.266 317.629H151.784V324H150.52V317.629H148.086V316.604H154.266V317.629Z" fill="#757575" fill-opacity="0.5"/>
<path d="M47.2051 288.168H46.168V292H45.043V283.469H46.168V287.23H47.0469L50.0293 283.469H51.4297L48.1719 287.605L51.6699 292H50.293L47.2051 288.168ZM52.2001 288.771C52.2001 288.15 52.3212 287.592 52.5634 287.096C52.8095 286.6 53.1493 286.217 53.5829 285.947C54.0204 285.678 54.5184 285.543 55.077 285.543C55.9403 285.543 56.6376 285.842 57.1688 286.439C57.704 287.037 57.9716 287.832 57.9716 288.824V288.9C57.9716 289.518 57.8524 290.072 57.6141 290.564C57.3798 291.053 57.0419 291.434 56.6005 291.707C56.163 291.98 55.6591 292.117 55.0887 292.117C54.2294 292.117 53.5321 291.818 52.997 291.221C52.4657 290.623 52.2001 289.832 52.2001 288.848V288.771ZM53.2899 288.9C53.2899 289.604 53.452 290.168 53.7762 290.594C54.1044 291.02 54.5419 291.232 55.0887 291.232C55.6395 291.232 56.077 291.018 56.4012 290.588C56.7255 290.154 56.8876 289.549 56.8876 288.771C56.8876 288.076 56.7216 287.514 56.3895 287.084C56.0614 286.65 55.6239 286.434 55.077 286.434C54.5419 286.434 54.1102 286.646 53.7821 287.072C53.454 287.498 53.2899 288.107 53.2899 288.9ZM63.1013 290.564L65.2576 285.66H66.6111V292H65.5271V287.389L63.4763 292H62.7263L60.6345 287.289V292H59.5505V285.66H60.9568L63.1013 290.564ZM72.1276 290.564L74.2838 285.66H75.6373V292H74.5534V287.389L72.5026 292H71.7526L69.6608 287.289V292H68.5768V285.66H69.983L72.1276 290.564ZM80.1343 292.117C79.2749 292.117 78.5757 291.836 78.0366 291.273C77.4976 290.707 77.228 289.951 77.228 289.006V288.807C77.228 288.178 77.3472 287.617 77.5855 287.125C77.8277 286.629 78.1636 286.242 78.5933 285.965C79.0269 285.684 79.4956 285.543 79.9995 285.543C80.8237 285.543 81.4644 285.814 81.9214 286.357C82.3784 286.9 82.607 287.678 82.607 288.689V289.141H78.312C78.3277 289.766 78.5093 290.271 78.857 290.658C79.2085 291.041 79.6538 291.232 80.1929 291.232C80.5757 291.232 80.8999 291.154 81.1655 290.998C81.4312 290.842 81.6636 290.635 81.8628 290.377L82.5249 290.893C81.9937 291.709 81.1968 292.117 80.1343 292.117ZM79.9995 286.434C79.562 286.434 79.1948 286.594 78.898 286.914C78.6011 287.23 78.4175 287.676 78.3472 288.25H81.523V288.168C81.4917 287.617 81.3433 287.191 81.0777 286.891C80.812 286.586 80.4527 286.434 79.9995 286.434ZM89.1664 292H88.0824V289.293H85.1703V292H84.0805V285.66H85.1703V288.408H88.0824V285.66H89.1664V292ZM95.7434 286.539H93.6165V292H92.5325V286.539H90.4466V285.66H95.7434V286.539ZM100.738 292C100.676 291.875 100.625 291.652 100.586 291.332C100.082 291.855 99.4806 292.117 98.7814 292.117C98.1564 292.117 97.6427 291.941 97.2404 291.59C96.842 291.234 96.6427 290.785 96.6427 290.242C96.6427 289.582 96.8927 289.07 97.3927 288.707C97.8966 288.34 98.6037 288.156 99.5138 288.156H100.569V287.658C100.569 287.279 100.455 286.979 100.229 286.756C100.002 286.529 99.6681 286.416 99.2267 286.416C98.84 286.416 98.5158 286.514 98.2541 286.709C97.9923 286.904 97.8615 287.141 97.8615 287.418H96.7716C96.7716 287.102 96.883 286.797 97.1056 286.504C97.3322 286.207 97.6369 285.973 98.0197 285.801C98.4064 285.629 98.8302 285.543 99.2912 285.543C100.022 285.543 100.594 285.727 101.008 286.094C101.422 286.457 101.637 286.959 101.653 287.6V290.518C101.653 291.1 101.727 291.562 101.875 291.906V292H100.738ZM98.9396 291.174C99.2795 291.174 99.6017 291.086 99.9064 290.91C100.211 290.734 100.432 290.506 100.569 290.225V288.924H99.7189C98.3908 288.924 97.7267 289.312 97.7267 290.09C97.7267 290.43 97.84 290.695 98.0666 290.887C98.2931 291.078 98.5841 291.174 98.9396 291.174ZM108.827 288.9C108.827 289.865 108.606 290.643 108.165 291.232C107.724 291.822 107.126 292.117 106.372 292.117C105.603 292.117 104.997 291.873 104.556 291.385V294.438H103.472V285.66H104.462L104.515 286.363C104.956 285.816 105.569 285.543 106.355 285.543C107.116 285.543 107.718 285.83 108.159 286.404C108.605 286.979 108.827 287.777 108.827 288.801V288.9ZM107.743 288.777C107.743 288.062 107.591 287.498 107.286 287.084C106.981 286.67 106.564 286.463 106.032 286.463C105.376 286.463 104.884 286.754 104.556 287.336V290.365C104.88 290.943 105.376 291.232 106.044 291.232C106.564 291.232 106.976 291.027 107.28 290.617C107.589 290.203 107.743 289.59 107.743 288.777ZM114.432 285.66H115.516V292H114.432V287.377L111.508 292H110.424V285.66H111.508V290.289L114.432 285.66ZM121.477 285.66H122.561V292H121.477V287.377L118.554 292H117.47V285.66H118.554V290.289L121.477 285.66ZM121.77 283.352C121.77 283.824 121.608 284.205 121.284 284.494C120.964 284.779 120.542 284.922 120.018 284.922C119.495 284.922 119.071 284.777 118.747 284.488C118.423 284.199 118.261 283.82 118.261 283.352H119.145C119.145 283.625 119.22 283.84 119.368 283.996C119.516 284.148 119.733 284.225 120.018 284.225C120.292 284.225 120.505 284.148 120.657 283.996C120.813 283.844 120.891 283.629 120.891 283.352H121.77Z" fill="#757575"/>
<rect x="57" y="444" width="16" height="15" rx="2" fill="#2196F3"/>
<path d="M60.957 451.752L60.8882 451.686L60.8192 451.751L59.9312 452.593L59.8549 452.665L59.931 452.738L63.4267 456.072L63.4957 456.138L63.5648 456.072L71.069 448.914L71.1449 448.841L71.069 448.769L70.1873 447.928L70.1183 447.862L70.0493 447.928L63.4958 454.174L60.957 451.752Z" fill="white" stroke="white" stroke-width="0.2"/>
<path d="M88.4766 452.842C88.3535 453.895 87.9639 454.708 87.3076 455.282C86.6559 455.852 85.7878 456.137 84.7031 456.137C83.5273 456.137 82.584 455.715 81.873 454.872C81.1667 454.029 80.8135 452.901 80.8135 451.488V450.531C80.8135 449.606 80.9775 448.793 81.3057 448.091C81.6383 447.389 82.1077 446.851 82.7139 446.478C83.32 446.099 84.0218 445.91 84.8193 445.91C85.8766 445.91 86.7243 446.206 87.3623 446.799C88.0003 447.387 88.3717 448.202 88.4766 449.246H87.1572C87.0433 448.453 86.7949 447.879 86.4121 447.523C86.0339 447.168 85.5029 446.99 84.8193 446.99C83.9808 446.99 83.3223 447.3 82.8438 447.92C82.3698 448.54 82.1328 449.422 82.1328 450.565V451.529C82.1328 452.609 82.3584 453.468 82.8096 454.106C83.2607 454.744 83.8919 455.063 84.7031 455.063C85.4323 455.063 85.9906 454.899 86.3779 454.571C86.7699 454.239 87.0296 453.662 87.1572 452.842H88.4766ZM90.1612 452.233C90.1612 451.509 90.3025 450.857 90.585 450.278C90.8721 449.7 91.2686 449.253 91.7745 448.938C92.2849 448.624 92.866 448.467 93.5177 448.467C94.5248 448.467 95.3383 448.815 95.9581 449.513C96.5824 450.21 96.8946 451.137 96.8946 452.295V452.384C96.8946 453.104 96.7556 453.751 96.4776 454.325C96.2042 454.895 95.81 455.339 95.295 455.658C94.7846 455.977 94.1967 456.137 93.5313 456.137C92.5287 456.137 91.7152 455.788 91.0909 455.091C90.4711 454.394 90.1612 453.471 90.1612 452.322V452.233ZM91.4327 452.384C91.4327 453.204 91.6218 453.863 92.0001 454.359C92.3829 454.856 92.8933 455.104 93.5313 455.104C94.1739 455.104 94.6843 454.854 95.0626 454.353C95.4408 453.847 95.63 453.14 95.63 452.233C95.63 451.422 95.4363 450.766 95.0489 450.265C94.6661 449.759 94.1557 449.506 93.5177 449.506C92.8933 449.506 92.3897 449.754 92.0069 450.251C91.6241 450.748 91.4327 451.459 91.4327 452.384ZM103.679 449.649H100.268V456H98.9963V448.604H103.679V449.649ZM110.989 448.604V456H109.718V449.649H107.202L107.052 452.418C106.97 453.689 106.756 454.599 106.409 455.146C106.068 455.692 105.523 455.977 104.776 456H104.27V454.886L104.632 454.858C105.042 454.813 105.336 454.576 105.514 454.147C105.692 453.719 105.806 452.926 105.856 451.769L105.992 448.604H110.989ZM118.006 456C117.933 455.854 117.874 455.594 117.828 455.221C117.241 455.831 116.539 456.137 115.723 456.137C114.994 456.137 114.395 455.932 113.925 455.521C113.46 455.107 113.228 454.583 113.228 453.949C113.228 453.179 113.52 452.582 114.103 452.158C114.691 451.73 115.516 451.516 116.577 451.516H117.808V450.935C117.808 450.493 117.676 450.142 117.411 449.882C117.147 449.618 116.757 449.485 116.243 449.485C115.791 449.485 115.413 449.599 115.108 449.827C114.802 450.055 114.65 450.331 114.65 450.654H113.378C113.378 450.285 113.508 449.93 113.768 449.588C114.032 449.242 114.388 448.968 114.834 448.768C115.285 448.567 115.78 448.467 116.318 448.467C117.17 448.467 117.838 448.681 118.321 449.109C118.804 449.533 119.054 450.119 119.073 450.866V454.271C119.073 454.95 119.159 455.49 119.332 455.891V456H118.006ZM115.908 455.036C116.304 455.036 116.68 454.934 117.035 454.729C117.391 454.523 117.648 454.257 117.808 453.929V452.411H116.817C115.267 452.411 114.493 452.865 114.493 453.771C114.493 454.168 114.625 454.478 114.889 454.701C115.153 454.924 115.493 455.036 115.908 455.036ZM122.856 448.604V454.968H125.563V448.604H126.828V454.968H129.528V448.604H130.799V456H121.584V448.604H122.856ZM137.782 456C137.709 455.854 137.65 455.594 137.604 455.221C137.016 455.831 136.314 456.137 135.499 456.137C134.769 456.137 134.17 455.932 133.701 455.521C133.236 455.107 133.003 454.583 133.003 453.949C133.003 453.179 133.295 452.582 133.878 452.158C134.466 451.73 135.291 451.516 136.353 451.516H137.583V450.935C137.583 450.493 137.451 450.142 137.187 449.882C136.923 449.618 136.533 449.485 136.018 449.485C135.567 449.485 135.189 449.599 134.883 449.827C134.578 450.055 134.425 450.331 134.425 450.654H133.154C133.154 450.285 133.284 449.93 133.543 449.588C133.808 449.242 134.163 448.968 134.61 448.768C135.061 448.567 135.555 448.467 136.093 448.467C136.945 448.467 137.613 448.681 138.096 449.109C138.579 449.533 138.83 450.119 138.848 450.866V454.271C138.848 454.95 138.935 455.49 139.108 455.891V456H137.782ZM135.683 455.036C136.08 455.036 136.456 454.934 136.811 454.729C137.166 454.523 137.424 454.257 137.583 453.929V452.411H136.592C135.043 452.411 134.268 452.865 134.268 453.771C134.268 454.168 134.4 454.478 134.665 454.701C134.929 454.924 135.268 455.036 135.683 455.036ZM142.631 451.741H144.409C144.504 450.757 144.853 449.966 145.455 449.369C146.061 448.768 146.824 448.467 147.745 448.467C148.711 448.467 149.502 448.793 150.117 449.444C150.732 450.096 151.065 450.944 151.115 451.987L151.122 452.384C151.122 453.104 150.98 453.753 150.698 454.332C150.415 454.911 150.019 455.357 149.508 455.672C148.998 455.982 148.415 456.137 147.758 456.137C146.806 456.137 146.027 455.827 145.42 455.207C144.814 454.583 144.475 453.774 144.402 452.78H142.631V456H141.367V448.604H142.631V451.741ZM145.653 452.384C145.653 453.204 145.842 453.863 146.22 454.359C146.603 454.856 147.116 455.104 147.758 455.104C148.401 455.104 148.909 454.852 149.283 454.346C149.661 453.84 149.85 453.136 149.85 452.233C149.85 451.427 149.659 450.771 149.276 450.265C148.893 449.759 148.383 449.506 147.745 449.506C147.116 449.506 146.61 449.754 146.227 450.251C145.844 450.748 145.653 451.459 145.653 452.384ZM156.067 455.104C156.518 455.104 156.912 454.968 157.25 454.694C157.587 454.421 157.774 454.079 157.81 453.669H159.006C158.984 454.093 158.838 454.496 158.569 454.879C158.3 455.262 157.94 455.567 157.489 455.795C157.042 456.023 156.568 456.137 156.067 456.137C155.06 456.137 154.258 455.802 153.661 455.132C153.068 454.457 152.772 453.537 152.772 452.37V452.158C152.772 451.438 152.904 450.798 153.169 450.237C153.433 449.677 153.811 449.242 154.303 448.932C154.8 448.622 155.386 448.467 156.06 448.467C156.89 448.467 157.578 448.715 158.125 449.212C158.676 449.709 158.97 450.354 159.006 451.146H157.81C157.774 450.668 157.591 450.276 157.263 449.971C156.94 449.661 156.539 449.506 156.06 449.506C155.418 449.506 154.919 449.738 154.563 450.203C154.212 450.663 154.037 451.331 154.037 452.206V452.445C154.037 453.298 154.212 453.954 154.563 454.414C154.914 454.874 155.415 455.104 156.067 455.104ZM162.229 451.153H164.15C164.989 451.162 165.652 451.381 166.139 451.81C166.627 452.238 166.871 452.819 166.871 453.553C166.871 454.291 166.62 454.883 166.119 455.33C165.618 455.777 164.943 456 164.095 456H160.965V448.604H162.229V451.153ZM162.229 452.186V454.968H164.109C164.583 454.968 164.95 454.847 165.21 454.605C165.469 454.359 165.599 454.024 165.599 453.601C165.599 453.19 165.472 452.855 165.217 452.596C164.966 452.331 164.613 452.195 164.157 452.186H162.229ZM175.729 455.104C176.181 455.104 176.575 454.968 176.912 454.694C177.249 454.421 177.436 454.079 177.473 453.669H178.669C178.646 454.093 178.5 454.496 178.231 454.879C177.962 455.262 177.602 455.567 177.151 455.795C176.705 456.023 176.231 456.137 175.729 456.137C174.722 456.137 173.92 455.802 173.323 455.132C172.731 454.457 172.434 453.537 172.434 452.37V452.158C172.434 451.438 172.567 450.798 172.831 450.237C173.095 449.677 173.474 449.242 173.966 448.932C174.462 448.622 175.048 448.467 175.723 448.467C176.552 448.467 177.24 448.715 177.787 449.212C178.338 449.709 178.632 450.354 178.669 451.146H177.473C177.436 450.668 177.254 450.276 176.926 449.971C176.602 449.661 176.201 449.506 175.723 449.506C175.08 449.506 174.581 449.738 174.225 450.203C173.875 450.663 173.699 451.331 173.699 452.206V452.445C173.699 453.298 173.875 453.954 174.225 454.414C174.576 454.874 175.078 455.104 175.729 455.104ZM190.651 452.384C190.651 453.509 190.394 454.416 189.879 455.104C189.364 455.793 188.667 456.137 187.787 456.137C186.889 456.137 186.183 455.852 185.668 455.282V458.844H184.403V448.604H185.559L185.62 449.424C186.135 448.786 186.851 448.467 187.767 448.467C188.655 448.467 189.357 448.802 189.872 449.472C190.392 450.142 190.651 451.074 190.651 452.268V452.384ZM189.387 452.24C189.387 451.406 189.209 450.748 188.854 450.265C188.498 449.782 188.01 449.54 187.391 449.54C186.625 449.54 186.051 449.88 185.668 450.559V454.093C186.046 454.767 186.625 455.104 187.404 455.104C188.01 455.104 188.491 454.865 188.847 454.387C189.207 453.904 189.387 453.188 189.387 452.24ZM197.251 456C197.178 455.854 197.119 455.594 197.073 455.221C196.485 455.831 195.784 456.137 194.968 456.137C194.239 456.137 193.639 455.932 193.17 455.521C192.705 455.107 192.473 454.583 192.473 453.949C192.473 453.179 192.764 452.582 193.348 452.158C193.936 451.73 194.761 451.516 195.822 451.516H197.053V450.935C197.053 450.493 196.921 450.142 196.656 449.882C196.392 449.618 196.002 449.485 195.487 449.485C195.036 449.485 194.658 449.599 194.353 449.827C194.047 450.055 193.895 450.331 193.895 450.654H192.623C192.623 450.285 192.753 449.93 193.013 449.588C193.277 449.242 193.633 448.968 194.079 448.768C194.53 448.567 195.025 448.467 195.563 448.467C196.415 448.467 197.082 448.681 197.566 449.109C198.049 449.533 198.299 450.119 198.317 450.866V454.271C198.317 454.95 198.404 455.49 198.577 455.891V456H197.251ZM195.152 455.036C195.549 455.036 195.925 454.934 196.28 454.729C196.636 454.523 196.893 454.257 197.053 453.929V452.411H196.062C194.512 452.411 193.737 452.865 193.737 453.771C193.737 454.168 193.87 454.478 194.134 454.701C194.398 454.924 194.738 455.036 195.152 455.036ZM203.687 455.104C204.138 455.104 204.532 454.968 204.869 454.694C205.207 454.421 205.393 454.079 205.43 453.669H206.626C206.603 454.093 206.458 454.496 206.189 454.879C205.92 455.262 205.56 455.567 205.109 455.795C204.662 456.023 204.188 456.137 203.687 456.137C202.68 456.137 201.877 455.802 201.28 455.132C200.688 454.457 200.392 453.537 200.392 452.37V452.158C200.392 451.438 200.524 450.798 200.788 450.237C201.053 449.677 201.431 449.242 201.923 448.932C202.42 448.622 203.005 448.467 203.68 448.467C204.509 448.467 205.197 448.715 205.744 449.212C206.296 449.709 206.59 450.354 206.626 451.146H205.43C205.393 450.668 205.211 450.276 204.883 449.971C204.559 449.661 204.158 449.506 203.68 449.506C203.037 449.506 202.538 449.738 202.183 450.203C201.832 450.663 201.656 451.331 201.656 452.206V452.445C201.656 453.298 201.832 453.954 202.183 454.414C202.534 454.874 203.035 455.104 203.687 455.104ZM211.435 455.104C211.886 455.104 212.28 454.968 212.617 454.694C212.955 454.421 213.142 454.079 213.178 453.669H214.374C214.352 454.093 214.206 454.496 213.937 454.879C213.668 455.262 213.308 455.567 212.857 455.795C212.41 456.023 211.936 456.137 211.435 456.137C210.428 456.137 209.626 455.802 209.029 455.132C208.436 454.457 208.14 453.537 208.14 452.37V452.158C208.14 451.438 208.272 450.798 208.536 450.237C208.801 449.677 209.179 449.242 209.671 448.932C210.168 448.622 210.754 448.467 211.428 448.467C212.257 448.467 212.946 448.715 213.492 449.212C214.044 449.709 214.338 450.354 214.374 451.146H213.178C213.142 450.668 212.959 450.276 212.631 449.971C212.308 449.661 211.907 449.506 211.428 449.506C210.785 449.506 210.286 449.738 209.931 450.203C209.58 450.663 209.405 451.331 209.405 452.206V452.445C209.405 453.298 209.58 453.954 209.931 454.414C210.282 454.874 210.783 455.104 211.435 455.104ZM217.597 451.153H219.518C220.356 451.162 221.02 451.381 221.507 451.81C221.995 452.238 222.239 452.819 222.239 453.553C222.239 454.291 221.988 454.883 221.487 455.33C220.985 455.777 220.311 456 219.463 456H216.332V448.604H217.597V451.153ZM224.877 456H223.606V448.604H224.877V456ZM217.597 452.186V454.968H219.477C219.951 454.968 220.318 454.847 220.577 454.605C220.837 454.359 220.967 454.024 220.967 453.601C220.967 453.19 220.84 452.855 220.584 452.596C220.334 452.331 219.98 452.195 219.525 452.186H217.597ZM233.569 448.604V456H232.297V449.649H229.782L229.631 452.418C229.549 453.689 229.335 454.599 228.989 455.146C228.647 455.692 228.102 455.977 227.355 456H226.849V454.886L227.211 454.858C227.622 454.813 227.915 454.576 228.093 454.147C228.271 453.719 228.385 452.926 228.435 451.769L228.572 448.604H233.569ZM238.323 452.849H237.4V456H236.128V448.604H237.4V451.734H238.227L240.715 448.604H242.247L239.321 452.158L242.493 456H240.886L238.323 452.849ZM243.514 452.233C243.514 451.509 243.656 450.857 243.938 450.278C244.225 449.7 244.622 449.253 245.128 448.938C245.638 448.624 246.219 448.467 246.871 448.467C247.878 448.467 248.691 448.815 249.311 449.513C249.935 450.21 250.248 451.137 250.248 452.295V452.384C250.248 453.104 250.109 453.751 249.831 454.325C249.557 454.895 249.163 455.339 248.648 455.658C248.138 455.977 247.55 456.137 246.884 456.137C245.882 456.137 245.068 455.788 244.444 455.091C243.824 454.394 243.514 453.471 243.514 452.322V452.233ZM244.786 452.384C244.786 453.204 244.975 453.863 245.353 454.359C245.736 454.856 246.246 455.104 246.884 455.104C247.527 455.104 248.037 454.854 248.416 454.353C248.794 453.847 248.983 453.14 248.983 452.233C248.983 451.422 248.789 450.766 248.402 450.265C248.019 449.759 247.509 449.506 246.871 449.506C246.246 449.506 245.743 449.754 245.36 450.251C244.977 450.748 244.786 451.459 244.786 452.384ZM257.039 448.604H258.303V456H257.039V450.606L253.628 456H252.363V448.604H253.628V454.004L257.039 448.604ZM257.381 445.91C257.381 446.462 257.191 446.906 256.813 447.243C256.439 447.576 255.947 447.742 255.337 447.742C254.726 447.742 254.231 447.574 253.853 447.236C253.475 446.899 253.286 446.457 253.286 445.91H254.318C254.318 446.229 254.405 446.48 254.578 446.662C254.751 446.84 255.004 446.929 255.337 446.929C255.656 446.929 255.904 446.84 256.082 446.662C256.264 446.484 256.355 446.234 256.355 445.91H257.381ZM269.431 448.604H270.696V456H269.431V450.606L266.02 456H264.756V448.604H266.02V454.004L269.431 448.604ZM283.089 456H281.824V449.649H278.42V456H277.148V448.604H283.089V456ZM291.787 452.384C291.787 453.509 291.53 454.416 291.015 455.104C290.5 455.793 289.802 456.137 288.923 456.137C288.025 456.137 287.319 455.852 286.804 455.282V458.844H285.539V448.604H286.694L286.756 449.424C287.271 448.786 287.986 448.467 288.902 448.467C289.791 448.467 290.493 448.802 291.008 449.472C291.527 450.142 291.787 451.074 291.787 452.268V452.384ZM290.523 452.24C290.523 451.406 290.345 450.748 289.989 450.265C289.634 449.782 289.146 449.54 288.526 449.54C287.761 449.54 287.187 449.88 286.804 450.559V454.093C287.182 454.767 287.761 455.104 288.54 455.104C289.146 455.104 289.627 454.865 289.982 454.387C290.343 453.904 290.523 453.188 290.523 452.24ZM298.606 448.604H299.87V456H298.606V450.606L295.194 456H293.93V448.604H295.194V454.004L298.606 448.604ZM308.364 456H307.099V452.842H303.701V456H302.43V448.604H303.701V451.81H307.099V448.604H308.364V456ZM315.606 448.604H316.87V456H315.606V450.606L312.195 456H310.93V448.604H312.195V454.004L315.606 448.604ZM323.579 454.325L326.095 448.604H327.674V456H326.41V450.62L324.017 456H323.142L320.702 450.504V456H319.437V448.604H321.078L323.579 454.325ZM334.698 456C334.625 455.854 334.566 455.594 334.52 455.221C333.932 455.831 333.23 456.137 332.415 456.137C331.685 456.137 331.086 455.932 330.617 455.521C330.152 455.107 329.919 454.583 329.919 453.949C329.919 453.179 330.211 452.582 330.794 452.158C331.382 451.73 332.207 451.516 333.269 451.516H334.499V450.935C334.499 450.493 334.367 450.142 334.103 449.882C333.839 449.618 333.449 449.485 332.934 449.485C332.483 449.485 332.105 449.599 331.799 449.827C331.494 450.055 331.341 450.331 331.341 450.654H330.07C330.07 450.285 330.2 449.93 330.459 449.588C330.724 449.242 331.079 448.968 331.526 448.768C331.977 448.567 332.472 448.467 333.009 448.467C333.861 448.467 334.529 448.681 335.012 449.109C335.495 449.533 335.746 450.119 335.764 450.866V454.271C335.764 454.95 335.851 455.49 336.024 455.891V456H334.698ZM332.599 455.036C332.996 455.036 333.372 454.934 333.727 454.729C334.083 454.523 334.34 454.257 334.499 453.929V452.411H333.508C331.959 452.411 331.184 452.865 331.184 453.771C331.184 454.168 331.316 454.478 331.581 454.701C331.845 454.924 332.184 455.036 332.599 455.036ZM339.547 451.741H341.325C341.42 450.757 341.769 449.966 342.371 449.369C342.977 448.768 343.74 448.467 344.661 448.467C345.627 448.467 346.418 448.793 347.033 449.444C347.648 450.096 347.981 450.944 348.031 451.987L348.038 452.384C348.038 453.104 347.896 453.753 347.614 454.332C347.331 454.911 346.935 455.357 346.424 455.672C345.914 455.982 345.331 456.137 344.674 456.137C343.722 456.137 342.943 455.827 342.336 455.207C341.73 454.583 341.391 453.774 341.318 452.78H339.547V456H338.283V448.604H339.547V451.741ZM342.569 452.384C342.569 453.204 342.758 453.863 343.136 454.359C343.519 454.856 344.032 455.104 344.674 455.104C345.317 455.104 345.825 454.852 346.199 454.346C346.577 453.84 346.766 453.136 346.766 452.233C346.766 451.427 346.575 450.771 346.192 450.265C345.809 449.759 345.299 449.506 344.661 449.506C344.032 449.506 343.526 449.754 343.143 450.251C342.76 450.748 342.569 451.459 342.569 452.384Z" fill="#757575"/>
<path d="M357.525 451.823L359.815 446.047H361.34L357.819 454.339C357.582 454.868 357.361 455.243 357.156 455.467C356.951 455.686 356.709 455.854 356.431 455.973C356.158 456.087 355.814 456.144 355.399 456.144C355.039 456.144 354.809 456.123 354.709 456.082L354.75 455.043L355.372 455.07C355.85 455.07 356.206 454.84 356.438 454.38L356.609 454.024L356.869 453.416L353.478 446.047H354.948L357.525 451.823ZM365.636 455.104C366.087 455.104 366.481 454.968 366.818 454.694C367.155 454.421 367.342 454.079 367.379 453.669H368.575C368.552 454.093 368.406 454.496 368.138 454.879C367.869 455.262 367.509 455.567 367.057 455.795C366.611 456.023 366.137 456.137 365.636 456.137C364.628 456.137 363.826 455.802 363.229 455.132C362.637 454.457 362.341 453.537 362.341 452.37V452.158C362.341 451.438 362.473 450.798 362.737 450.237C363.001 449.677 363.38 449.242 363.872 448.932C364.369 448.622 364.954 448.467 365.629 448.467C366.458 448.467 367.146 448.715 367.693 449.212C368.245 449.709 368.539 450.354 368.575 451.146H367.379C367.342 450.668 367.16 450.276 366.832 449.971C366.508 449.661 366.107 449.506 365.629 449.506C364.986 449.506 364.487 449.738 364.132 450.203C363.781 450.663 363.605 451.331 363.605 452.206V452.445C363.605 453.298 363.781 453.954 364.132 454.414C364.483 454.874 364.984 455.104 365.636 455.104ZM376.48 448.604V456H375.209V449.649H372.693L372.543 452.418C372.461 453.689 372.247 454.599 371.9 455.146C371.558 455.692 371.014 455.977 370.266 456H369.761V454.886L370.123 454.858C370.533 454.813 370.827 454.576 371.005 454.147C371.182 453.719 371.296 452.926 371.347 451.769L371.483 448.604H376.48ZM378.596 452.233C378.596 451.509 378.737 450.857 379.02 450.278C379.307 449.7 379.703 449.253 380.209 448.938C380.719 448.624 381.3 448.467 381.952 448.467C382.959 448.467 383.773 448.815 384.393 449.513C385.017 450.21 385.329 451.137 385.329 452.295V452.384C385.329 453.104 385.19 453.751 384.912 454.325C384.639 454.895 384.244 455.339 383.729 455.658C383.219 455.977 382.631 456.137 381.966 456.137C380.963 456.137 380.15 455.788 379.525 455.091C378.906 454.394 378.596 453.471 378.596 452.322V452.233ZM379.867 452.384C379.867 453.204 380.056 453.863 380.435 454.359C380.817 454.856 381.328 455.104 381.966 455.104C382.608 455.104 383.119 454.854 383.497 454.353C383.875 453.847 384.064 453.14 384.064 452.233C384.064 451.422 383.871 450.766 383.483 450.265C383.101 449.759 382.59 449.506 381.952 449.506C381.328 449.506 380.824 449.754 380.441 450.251C380.059 450.748 379.867 451.459 379.867 452.384ZM387.451 456V448.604H390.336C391.32 448.604 392.075 448.777 392.599 449.123C393.127 449.465 393.392 449.968 393.392 450.634C393.392 450.976 393.289 451.285 393.084 451.563C392.879 451.837 392.576 452.047 392.175 452.192C392.621 452.297 392.979 452.502 393.248 452.808C393.522 453.113 393.658 453.478 393.658 453.901C393.658 454.58 393.408 455.1 392.906 455.46C392.41 455.82 391.705 456 390.794 456H387.451ZM388.716 452.753V454.981H390.808C391.336 454.981 391.73 454.883 391.99 454.688C392.255 454.492 392.387 454.216 392.387 453.86C392.387 453.122 391.844 452.753 390.76 452.753H388.716ZM388.716 451.741H390.35C391.535 451.741 392.127 451.395 392.127 450.702C392.127 450.009 391.566 449.652 390.445 449.629H388.716V451.741ZM400.538 448.604H401.803V456H400.538V450.606L397.127 456H395.862V448.604H397.127V454.004L400.538 448.604ZM409.906 448.604V456H408.635V453.122H406.728L404.985 456H403.617L405.477 452.931C405.003 452.757 404.638 452.491 404.383 452.131C404.132 451.766 404.007 451.342 404.007 450.859C404.007 450.185 404.26 449.643 404.766 449.232C405.272 448.818 405.948 448.608 406.796 448.604H409.906ZM405.279 450.873C405.279 451.233 405.402 451.525 405.648 451.748C405.894 451.967 406.22 452.078 406.625 452.083H408.635V449.629H406.817C406.347 449.629 405.973 449.745 405.695 449.978C405.418 450.205 405.279 450.504 405.279 450.873ZM416.188 454.968L416.625 454.428C417.118 453.79 417.398 452.833 417.466 451.557L417.582 448.604H422.347V454.968H423.297V458.174H422.033V456H416.871V458.174H415.607L415.614 454.968H416.188ZM417.685 454.968H421.082V449.772H418.806L418.731 451.536C418.653 453.008 418.305 454.152 417.685 454.968ZM424.784 452.233C424.784 451.509 424.925 450.857 425.207 450.278C425.495 449.7 425.891 449.253 426.397 448.938C426.907 448.624 427.488 448.467 428.14 448.467C429.147 448.467 429.961 448.815 430.581 449.513C431.205 450.21 431.517 451.137 431.517 452.295V452.384C431.517 453.104 431.378 453.751 431.1 454.325C430.827 454.895 430.432 455.339 429.917 455.658C429.407 455.977 428.819 456.137 428.154 456.137C427.151 456.137 426.338 455.788 425.713 455.091C425.094 454.394 424.784 453.471 424.784 452.322V452.233ZM426.055 452.384C426.055 453.204 426.244 453.863 426.622 454.359C427.005 454.856 427.516 455.104 428.154 455.104C428.796 455.104 429.307 454.854 429.685 454.353C430.063 453.847 430.252 453.14 430.252 452.233C430.252 451.422 430.059 450.766 429.671 450.265C429.289 449.759 428.778 449.506 428.14 449.506C427.516 449.506 427.012 449.754 426.629 450.251C426.247 450.748 426.055 451.459 426.055 452.384ZM438.301 449.649H434.89V456H433.619V448.604H438.301V449.649ZM439.35 452.233C439.35 451.509 439.491 450.857 439.774 450.278C440.061 449.7 440.458 449.253 440.963 448.938C441.474 448.624 442.055 448.467 442.707 448.467C443.714 448.467 444.527 448.815 445.147 449.513C445.771 450.21 446.084 451.137 446.084 452.295V452.384C446.084 453.104 445.945 453.751 445.667 454.325C445.393 454.895 444.999 455.339 444.484 455.658C443.974 455.977 443.386 456.137 442.72 456.137C441.718 456.137 440.904 455.788 440.28 455.091C439.66 454.394 439.35 453.471 439.35 452.322V452.233ZM440.622 452.384C440.622 453.204 440.811 453.863 441.189 454.359C441.572 454.856 442.082 455.104 442.72 455.104C443.363 455.104 443.873 454.854 444.252 454.353C444.63 453.847 444.819 453.14 444.819 452.233C444.819 451.422 444.625 450.766 444.238 450.265C443.855 449.759 443.345 449.506 442.707 449.506C442.082 449.506 441.579 449.754 441.196 450.251C440.813 450.748 440.622 451.459 440.622 452.384ZM448.206 456V448.604H451.091C452.075 448.604 452.829 448.777 453.353 449.123C453.882 449.465 454.146 449.968 454.146 450.634C454.146 450.976 454.044 451.285 453.839 451.563C453.633 451.837 453.33 452.047 452.929 452.192C453.376 452.297 453.734 452.502 454.003 452.808C454.276 453.113 454.413 453.478 454.413 453.901C454.413 454.58 454.162 455.1 453.661 455.46C453.164 455.82 452.46 456 451.549 456H448.206ZM449.47 452.753V454.981H451.562C452.091 454.981 452.485 454.883 452.745 454.688C453.009 454.492 453.141 454.216 453.141 453.86C453.141 453.122 452.599 452.753 451.514 452.753H449.47ZM449.47 451.741H451.104C452.289 451.741 452.882 451.395 452.882 450.702C452.882 450.009 452.321 449.652 451.2 449.629H449.47V451.741ZM456.173 452.233C456.173 451.509 456.314 450.857 456.596 450.278C456.884 449.7 457.28 449.253 457.786 448.938C458.296 448.624 458.877 448.467 459.529 448.467C460.536 448.467 461.35 448.815 461.969 449.513C462.594 450.21 462.906 451.137 462.906 452.295V452.384C462.906 453.104 462.767 453.751 462.489 454.325C462.216 454.895 461.821 455.339 461.306 455.658C460.796 455.977 460.208 456.137 459.543 456.137C458.54 456.137 457.727 455.788 457.102 455.091C456.483 454.394 456.173 453.471 456.173 452.322V452.233ZM457.444 452.384C457.444 453.204 457.633 453.863 458.011 454.359C458.394 454.856 458.905 455.104 459.543 455.104C460.185 455.104 460.696 454.854 461.074 454.353C461.452 453.847 461.641 453.14 461.641 452.233C461.641 451.422 461.448 450.766 461.06 450.265C460.677 449.759 460.167 449.506 459.529 449.506C458.905 449.506 458.401 449.754 458.018 450.251C457.635 450.748 457.444 451.459 457.444 452.384ZM471.16 452.384C471.16 453.509 470.903 454.416 470.388 455.104C469.873 455.793 469.175 456.137 468.296 456.137C467.398 456.137 466.692 455.852 466.177 455.282V458.844H464.912V448.604H466.067L466.129 449.424C466.644 448.786 467.359 448.467 468.275 448.467C469.164 448.467 469.866 448.802 470.381 449.472C470.9 450.142 471.16 451.074 471.16 452.268V452.384ZM469.895 452.24C469.895 451.406 469.718 450.748 469.362 450.265C469.007 449.782 468.519 449.54 467.899 449.54C467.134 449.54 466.559 449.88 466.177 450.559V454.093C466.555 454.767 467.134 455.104 467.913 455.104C468.519 455.104 469 454.865 469.355 454.387C469.715 453.904 469.895 453.188 469.895 452.24ZM477.76 456C477.687 455.854 477.628 455.594 477.582 455.221C476.994 455.831 476.292 456.137 475.476 456.137C474.747 456.137 474.148 455.932 473.679 455.521C473.214 455.107 472.981 454.583 472.981 453.949C472.981 453.179 473.273 452.582 473.856 452.158C474.444 451.73 475.269 451.516 476.331 451.516H477.561V450.935C477.561 450.493 477.429 450.142 477.165 449.882C476.901 449.618 476.511 449.485 475.996 449.485C475.545 449.485 475.167 449.599 474.861 449.827C474.556 450.055 474.403 450.331 474.403 450.654H473.132C473.132 450.285 473.262 449.93 473.521 449.588C473.786 449.242 474.141 448.968 474.588 448.768C475.039 448.567 475.533 448.467 476.071 448.467C476.923 448.467 477.591 448.681 478.074 449.109C478.557 449.533 478.808 450.119 478.826 450.866V454.271C478.826 454.95 478.913 455.49 479.086 455.891V456H477.76ZM475.661 455.036C476.058 455.036 476.434 454.934 476.789 454.729C477.144 454.523 477.402 454.257 477.561 453.929V452.411H476.57C475.021 452.411 474.246 452.865 474.246 453.771C474.246 454.168 474.378 454.478 474.642 454.701C474.907 454.924 475.246 455.036 475.661 455.036Z" fill="#2196F3"/>
<path d="M352.952 457.367H479.851V458.051H352.952V457.367Z" fill="#2196F3"/>
<g filter="url(#filter1_d)">
<rect x="168" y="493" width="200" height="50" rx="4" fill="#188CE8"/>
</g>
<path d="M234.465 517.57C234.465 518.69 234.267 519.672 233.871 520.516C233.475 521.359 232.907 522.01 232.168 522.469C231.433 522.927 230.59 523.156 229.637 523.156C228.694 523.156 227.853 522.93 227.113 522.477C226.374 522.023 225.801 521.378 225.394 520.539C224.988 519.695 224.782 518.727 224.777 517.633V517.07C224.777 515.951 224.978 514.966 225.379 514.117C225.785 513.263 226.355 512.609 227.09 512.156C227.829 511.698 228.673 511.469 229.621 511.469C230.569 511.469 231.41 511.698 232.144 512.156C232.884 512.609 233.454 513.263 233.855 514.117C234.262 514.966 234.465 515.948 234.465 517.062V517.57ZM232.09 517.055C232.09 515.862 231.876 514.956 231.449 514.336C231.022 513.716 230.413 513.406 229.621 513.406C228.834 513.406 228.228 513.714 227.801 514.328C227.374 514.938 227.157 515.833 227.152 517.016V517.57C227.152 518.732 227.366 519.633 227.793 520.273C228.22 520.914 228.834 521.234 229.637 521.234C230.423 521.234 231.027 520.927 231.449 520.312C231.871 519.693 232.084 518.792 232.09 517.609V517.055ZM243.995 516.359H241.284V523H239.018V516.359H236.354V514.547H243.995V516.359ZM253.447 523H251.182V516.375H248.353V523H246.096V514.547H253.447V523ZM263.743 518.852C263.743 520.154 263.446 521.198 262.852 521.984C262.264 522.766 261.467 523.156 260.462 523.156C259.608 523.156 258.918 522.859 258.392 522.266V526.25H256.134V514.547H258.227L258.306 515.375C258.852 514.719 259.566 514.391 260.446 514.391C261.488 514.391 262.298 514.776 262.876 515.547C263.454 516.318 263.743 517.38 263.743 518.734V518.852ZM261.485 518.688C261.485 517.901 261.345 517.294 261.063 516.867C260.787 516.44 260.384 516.227 259.852 516.227C259.144 516.227 258.657 516.497 258.392 517.039V520.5C258.668 521.057 259.16 521.336 259.868 521.336C260.946 521.336 261.485 520.453 261.485 518.688ZM271.008 523C270.904 522.797 270.828 522.544 270.781 522.242C270.234 522.852 269.523 523.156 268.648 523.156C267.82 523.156 267.133 522.917 266.586 522.438C266.044 521.958 265.773 521.354 265.773 520.625C265.773 519.729 266.104 519.042 266.766 518.562C267.432 518.083 268.393 517.841 269.648 517.836H270.688V517.352C270.688 516.961 270.586 516.648 270.383 516.414C270.185 516.18 269.87 516.062 269.438 516.062C269.057 516.062 268.758 516.154 268.539 516.336C268.326 516.518 268.219 516.768 268.219 517.086H265.961C265.961 516.596 266.112 516.143 266.414 515.727C266.716 515.31 267.143 514.984 267.695 514.75C268.247 514.51 268.867 514.391 269.555 514.391C270.596 514.391 271.422 514.654 272.031 515.18C272.646 515.701 272.953 516.435 272.953 517.383V521.047C272.958 521.849 273.07 522.456 273.289 522.867V523H271.008ZM269.141 521.43C269.474 521.43 269.781 521.357 270.062 521.211C270.344 521.06 270.552 520.859 270.688 520.609V519.156H269.844C268.714 519.156 268.112 519.547 268.039 520.328L268.031 520.461C268.031 520.742 268.13 520.974 268.328 521.156C268.526 521.339 268.797 521.43 269.141 521.43ZM275.796 523V514.547H279.327C280.478 514.547 281.361 514.75 281.976 515.156C282.59 515.562 282.897 516.146 282.897 516.906C282.897 517.297 282.767 517.648 282.507 517.961C282.252 518.268 281.877 518.505 281.382 518.672C281.986 518.786 282.46 519.013 282.804 519.352C283.153 519.685 283.327 520.096 283.327 520.586C283.327 521.372 283.03 521.971 282.437 522.383C281.848 522.794 280.991 523 279.866 523H275.796ZM278.054 519.492V521.195H279.874C280.671 521.195 281.069 520.917 281.069 520.359C281.069 519.792 280.689 519.503 279.929 519.492H278.054ZM278.054 517.977H279.452C280.244 517.966 280.64 517.711 280.64 517.211C280.64 516.904 280.53 516.685 280.312 516.555C280.098 516.424 279.77 516.359 279.327 516.359H278.054V517.977ZM290.764 514.547H293.022V523H290.764V517.781L287.936 523H285.67V514.547H287.936V519.758L290.764 514.547ZM302.724 516.359H300.013V523H297.747V516.359H295.083V514.547H302.724V516.359ZM307.238 517.023H308.856C309.585 517.023 310.225 517.146 310.777 517.391C311.33 517.635 311.751 517.987 312.043 518.445C312.34 518.898 312.488 519.427 312.488 520.031C312.488 520.922 312.158 521.641 311.496 522.188C310.84 522.729 309.944 523 308.809 523H304.973V514.547H307.238V517.023ZM307.238 518.836V521.195H308.84C309.288 521.195 309.632 521.091 309.871 520.883C310.111 520.674 310.231 520.391 310.231 520.031C310.231 519.667 310.113 519.378 309.879 519.164C309.645 518.945 309.298 518.836 308.84 518.836H307.238Z" fill="white"/>
<defs>
<filter id="filter0_ddd" x="0" y="0" width="534" height="587" filterUnits="userSpaceOnUse" color-interpolation-filters="sRGB">
<feFlood flood-opacity="0" result="BackgroundImageFix"/>
<feColorMatrix in="SourceAlpha" type="matrix" values="0 0 0 0 0 0 0 0 0 0 0 0 0 0 0 0 0 0 127 0"/>
<feOffset dy="2"/>
<feGaussianBlur stdDeviation="0.5"/>
<feColorMatrix type="matrix" values="0 0 0 0 0 0 0 0 0 0 0 0 0 0 0 0 0 0 0.2 0"/>
<feBlend mode="normal" in2="BackgroundImageFix" result="effect1_dropShadow"/>
<feColorMatrix in="SourceAlpha" type="matrix" values="0 0 0 0 0 0 0 0 0 0 0 0 0 0 0 0 0 0 127 0"/>
<feOffset dy="1"/>
<feGaussianBlur stdDeviation="0.5"/>
<feColorMatrix type="matrix" values="0 0 0 0 0 0 0 0 0 0 0 0 0 0 0 0 0 0 0.14 0"/>
<feBlend mode="normal" in2="effect1_dropShadow" result="effect2_dropShadow"/>
<feColorMatrix in="SourceAlpha" type="matrix" values="0 0 0 0 0 0 0 0 0 0 0 0 0 0 0 0 0 0 127 0"/>
<feOffset dy="1"/>
<feGaussianBlur stdDeviation="1.5"/>
<feColorMatrix type="matrix" values="0 0 0 0 0 0 0 0 0 0 0 0 0 0 0 0 0 0 0.12 0"/>
<feBlend mode="normal" in2="effect2_dropShadow" result="effect3_dropShadow"/>
<feBlend mode="normal" in="SourceGraphic" in2="effect3_dropShadow" result="shape"/>
</filter>
<filter id="filter1_d" x="164" y="493" width="208" height="58" filterUnits="userSpaceOnUse" color-interpolation-filters="sRGB">
<feFlood flood-opacity="0" result="BackgroundImageFix"/>
<feColorMatrix in="SourceAlpha" type="matrix" values="0 0 0 0 0 0 0 0 0 0 0 0 0 0 0 0 0 0 127 0"/>
<feOffset dy="4"/>
<feGaussianBlur stdDeviation="2"/>
<feColorMatrix type="matrix" values="0 0 0 0 0 0 0 0 0 0 0 0 0 0 0 0 0 0 0.15 0"/>
<feBlend mode="normal" in2="BackgroundImageFix" result="effect1_dropShadow"/>
<feBlend mode="normal" in="SourceGraphic" in2="effect1_dropShadow" result="shape"/>
</filter>
</defs>
</svg>
